<?xml version="1.0" encoding="utf-8" standalone="no"?>
<!DOCTYPE svg PUBLIC "-//W3C//DTD SVG 1.1//EN"
  "http://www.w3.org/Graphics/SVG/1.1/DTD/svg11.dtd">
<!-- Created with matplotlib (https://matplotlib.org/) -->
<svg height="216pt" version="1.1" viewBox="0 0 432 216" width="432pt" xmlns="http://www.w3.org/2000/svg" xmlns:xlink="http://www.w3.org/1999/xlink">
 <metadata>
  <rdf:RDF xmlns:cc="http://creativecommons.org/ns#" xmlns:dc="http://purl.org/dc/elements/1.1/" xmlns:rdf="http://www.w3.org/1999/02/22-rdf-syntax-ns#">
   <cc:Work>
    <dc:type rdf:resource="http://purl.org/dc/dcmitype/StillImage"/>
    <dc:date>2022-05-09T23:17:20.309023</dc:date>
    <dc:format>image/svg+xml</dc:format>
    <dc:creator>
     <cc:Agent>
      <dc:title>Matplotlib v3.3.2, https://matplotlib.org/</dc:title>
     </cc:Agent>
    </dc:creator>
   </cc:Work>
  </rdf:RDF>
 </metadata>
 <defs>
  <style type="text/css">*{stroke-linecap:butt;stroke-linejoin:round;}</style>
 </defs>
 <g id="figure_1">
  <g id="patch_1">
   <path d="M 0 216 
L 432 216 
L 432 0 
L 0 0 
z
" style="fill:none;"/>
  </g>
  <g id="axes_1">
   <g id="patch_2">
    <path d="M 56.7258 169.458056 
L 419.04 169.458056 
L 419.04 14.549437 
L 56.7258 14.549437 
z
" style="fill:none;"/>
   </g>
   <g id="matplotlib.axis_1">
    <g id="xtick_1">
     <g id="line2d_1">
      <defs>
       <path d="M 0 0 
L 0 3.5 
" id="m06bd649020" style="stroke:#000000;stroke-width:0.8;"/>
      </defs>
      <g>
       <use style="stroke:#000000;stroke-width:0.8;" x="73.062771" xlink:href="#m06bd649020" y="169.458056"/>
      </g>
     </g>
     <g id="text_1">
      <!-- $\mathdefault{0.0}$ -->
      <g transform="translate(65.58395 184.760236)scale(0.12 -0.12)">
       <defs>
        <path d="M 42 31.640625 
C 42 37.75 41.90625 48.125 37.703125 56.109375 
C 34 63.109375 28.09375 65.59375 22.90625 65.59375 
C 18.09375 65.59375 12 63.40625 8.203125 56.203125 
C 4.203125 48.71875 3.796875 39.4375 3.796875 31.640625 
C 3.796875 25.953125 3.90625 17.28125 7 9.671875 
C 11.296875 -0.609375 19 -2 22.90625 -2 
C 27.5 -2 34.5 -0.109375 38.59375 9.375 
C 41.59375 16.28125 42 24.359375 42 31.640625 
z
M 22.90625 -0.40625 
C 16.5 -0.40625 12.703125 5.078125 11.296875 12.6875 
C 10.203125 18.5625 10.203125 27.15625 10.203125 32.75 
C 10.203125 40.4375 10.203125 46.828125 11.5 52.921875 
C 13.40625 61.390625 19 64 22.90625 64 
C 27 64 32.296875 61.296875 34.203125 53.125 
C 35.5 47.4375 35.59375 40.734375 35.59375 32.75 
C 35.59375 26.25 35.59375 18.265625 34.40625 12.375 
C 32.296875 1.484375 26.40625 -0.40625 22.90625 -0.40625 
z
" id="CMR17-48"/>
        <path d="M 18.40625 4.796875 
C 18.40625 7.6875 16 9.671875 13.59375 9.671875 
C 10.703125 9.671875 8.703125 7.28125 8.703125 4.890625 
C 8.703125 2 11.09375 0 13.5 0 
C 16.40625 0 18.40625 2.390625 18.40625 4.796875 
z
" id="CMMI12-58"/>
       </defs>
       <use transform="scale(0.996264)" xlink:href="#CMR17-48"/>
       <use transform="translate(45.690477 0)scale(0.996264)" xlink:href="#CMMI12-58"/>
       <use transform="translate(72.787654 0)scale(0.996264)" xlink:href="#CMR17-48"/>
      </g>
     </g>
    </g>
    <g id="xtick_2">
     <g id="line2d_2">
      <g>
       <use style="stroke:#000000;stroke-width:0.8;" x="138.990823" xlink:href="#m06bd649020" y="169.458056"/>
      </g>
     </g>
     <g id="text_2">
      <!-- $\mathdefault{0.5}$ -->
      <g transform="translate(131.512002 184.760236)scale(0.12 -0.12)">
       <defs>
        <path d="M 11.40625 57.6875 
C 12.40625 57.28125 16.5 56 20.703125 56 
C 30 56 35.09375 61.109375 38 64.0625 
C 38 64.953125 38 65.5 37.40625 65.5 
C 37.296875 65.5 37.09375 65.5 36.296875 65.046875 
C 32.796875 63.40625 28.703125 62.078125 23.703125 62.078125 
C 20.703125 62.078125 16.203125 62.484375 11.296875 64.671875 
C 10.203125 65.171875 10 65.171875 9.90625 65.171875 
C 9.40625 65.171875 9.296875 65.0625 9.296875 63.078125 
L 9.296875 34.421875 
C 9.296875 32.640625 9.296875 32.140625 10.296875 32.140625 
C 10.796875 32.140625 11 32.34375 11.5 33.03125 
C 14.703125 37.515625 19.09375 39.40625 24.09375 39.40625 
C 27.59375 39.40625 35.09375 37.21875 35.09375 20.140625 
C 35.09375 16.953125 35.09375 11.171875 32.09375 6.578125 
C 29.59375 2.484375 25.703125 0.390625 21.40625 0.390625 
C 14.796875 0.390625 8.09375 5 6.296875 12.71875 
C 6.703125 12.609375 7.5 12.421875 7.90625 12.421875 
C 9.203125 12.421875 11.703125 13.125 11.703125 16.21875 
C 11.703125 18.90625 9.796875 20 7.90625 20 
C 5.59375 20 4.09375 18.59375 4.09375 15.796875 
C 4.09375 7.09375 11 -2 21.59375 -2 
C 31.90625 -2 41.703125 6.875 41.703125 19.75 
C 41.703125 31.71875 33.90625 41 24.203125 41 
C 19.09375 41 14.796875 39.109375 11.40625 35.53125 
z
" id="CMR17-53"/>
       </defs>
       <use transform="scale(0.996264)" xlink:href="#CMR17-48"/>
       <use transform="translate(45.690477 0)scale(0.996264)" xlink:href="#CMMI12-58"/>
       <use transform="translate(72.787654 0)scale(0.996264)" xlink:href="#CMR17-53"/>
      </g>
     </g>
    </g>
    <g id="xtick_3">
     <g id="line2d_3">
      <g>
       <use style="stroke:#000000;stroke-width:0.8;" x="204.918874" xlink:href="#m06bd649020" y="169.458056"/>
      </g>
     </g>
     <g id="text_3">
      <!-- $\mathdefault{1.0}$ -->
      <g transform="translate(197.440053 184.760236)scale(0.12 -0.12)">
       <defs>
        <path d="M 26.59375 63.40625 
C 26.59375 65.5 26.5 65.5 25.09375 65.5 
C 21.203125 61.1875 15.296875 59.796875 9.703125 59.796875 
C 9.40625 59.796875 8.90625 59.796875 8.796875 59.5 
C 8.703125 59.296875 8.703125 59.09375 8.703125 57 
C 11.796875 57 17 57.59375 21 59.984375 
L 21 7.203125 
C 21 3.6875 20.796875 2.5 12.203125 2.5 
L 9.203125 2.5 
L 9.203125 0 
C 14 0 19 0 23.796875 0 
C 28.59375 0 33.59375 0 38.40625 0 
L 38.40625 2.5 
L 35.40625 2.5 
C 26.796875 2.5 26.59375 3.59375 26.59375 7.15625 
z
" id="CMR17-49"/>
       </defs>
       <use transform="scale(0.996264)" xlink:href="#CMR17-49"/>
       <use transform="translate(45.690477 0)scale(0.996264)" xlink:href="#CMMI12-58"/>
       <use transform="translate(72.787654 0)scale(0.996264)" xlink:href="#CMR17-48"/>
      </g>
     </g>
    </g>
    <g id="xtick_4">
     <g id="line2d_4">
      <g>
       <use style="stroke:#000000;stroke-width:0.8;" x="270.846926" xlink:href="#m06bd649020" y="169.458056"/>
      </g>
     </g>
     <g id="text_4">
      <!-- $\mathdefault{1.5}$ -->
      <g transform="translate(263.368105 184.760236)scale(0.12 -0.12)">
       <use transform="scale(0.996264)" xlink:href="#CMR17-49"/>
       <use transform="translate(45.690477 0)scale(0.996264)" xlink:href="#CMMI12-58"/>
       <use transform="translate(72.787654 0)scale(0.996264)" xlink:href="#CMR17-53"/>
      </g>
     </g>
    </g>
    <g id="xtick_5">
     <g id="line2d_5">
      <g>
       <use style="stroke:#000000;stroke-width:0.8;" x="336.774977" xlink:href="#m06bd649020" y="169.458056"/>
      </g>
     </g>
     <g id="text_5">
      <!-- $\mathdefault{2.0}$ -->
      <g transform="translate(329.296156 184.760236)scale(0.12 -0.12)">
       <defs>
        <path d="M 41.703125 15.453125 
L 39.90625 15.453125 
C 38.90625 8.375 38.09375 7.171875 37.703125 6.5625 
C 37.203125 5.765625 30 5.765625 28.59375 5.765625 
L 9.40625 5.765625 
C 13 9.671875 20 16.75 28.5 24.953125 
C 34.59375 30.734375 41.703125 37.53125 41.703125 47.421875 
C 41.703125 59.21875 32.296875 66 21.796875 66 
C 10.796875 66 4.09375 56.3125 4.09375 47.34375 
C 4.09375 43.4375 7 42.9375 8.203125 42.9375 
C 9.203125 42.9375 12.203125 43.546875 12.203125 47.03125 
C 12.203125 50.109375 9.59375 51 8.203125 51 
C 7.59375 51 7 50.90625 6.59375 50.703125 
C 8.5 59.21875 14.296875 63.40625 20.40625 63.40625 
C 29.09375 63.40625 34.796875 56.515625 34.796875 47.421875 
C 34.796875 38.734375 29.703125 31.25 24 24.75 
L 4.09375 2.28125 
L 4.09375 0 
L 39.296875 0 
z
" id="CMR17-50"/>
       </defs>
       <use transform="scale(0.996264)" xlink:href="#CMR17-50"/>
       <use transform="translate(45.690477 0)scale(0.996264)" xlink:href="#CMMI12-58"/>
       <use transform="translate(72.787654 0)scale(0.996264)" xlink:href="#CMR17-48"/>
      </g>
     </g>
    </g>
    <g id="xtick_6">
     <g id="line2d_6">
      <g>
       <use style="stroke:#000000;stroke-width:0.8;" x="402.703029" xlink:href="#m06bd649020" y="169.458056"/>
      </g>
     </g>
     <g id="text_6">
      <!-- $\mathdefault{2.5}$ -->
      <g transform="translate(395.224208 184.760236)scale(0.12 -0.12)">
       <use transform="scale(0.996264)" xlink:href="#CMR17-50"/>
       <use transform="translate(45.690477 0)scale(0.996264)" xlink:href="#CMMI12-58"/>
       <use transform="translate(72.787654 0)scale(0.996264)" xlink:href="#CMR17-53"/>
      </g>
     </g>
    </g>
    <g id="text_7">
     <!-- Time (s) -->
     <g transform="translate(215.739087 200.051208)scale(0.12 -0.12)">
      <defs>
       <path d="M 62.203125 67.59375 
L 4.5 67.59375 
L 2.796875 45.59375 
L 4.59375 45.59375 
C 5.90625 62.125 7.296875 65 22.703125 65 
C 24.5 65 27.40625 65 28.203125 64.90625 
C 30.09375 64.609375 30.09375 63.40625 30.09375 61.125 
L 30.09375 7.171875 
C 30.09375 3.59375 29.796875 2.5 21.5 2.5 
L 18.703125 2.5 
L 18.703125 0 
C 23.5 0 28.5 0 33.40625 0 
C 38.296875 0 43.296875 0 48.09375 0 
L 48.09375 2.5 
L 45.296875 2.5 
C 37 2.5 36.703125 3.59375 36.703125 7.171875 
L 36.703125 61.125 
C 36.703125 63.3125 36.703125 64.515625 38.5 64.90625 
C 39.296875 65 42.203125 65 44 65 
C 59.296875 65 60.796875 62.125 62.09375 45.59375 
L 63.90625 45.59375 
z
" id="CMR17-84"/>
       <path d="M 15.5 61.078125 
C 15.5 63.265625 13.703125 65.15625 11.40625 65.15625 
C 9.203125 65.15625 7.296875 63.375 7.296875 61.078125 
C 7.296875 58.890625 9.09375 57 11.40625 57 
C 13.59375 57 15.5 58.796875 15.5 61.078125 
z
M 3.796875 42.28125 
L 3.796875 39.703125 
C 9.40625 39.703125 10.203125 39.09375 10.203125 34.328125 
L 10.203125 6.671875 
C 10.203125 2.875 9.796875 2.390625 3.40625 2.390625 
L 3.40625 -0.203125 
C 5.796875 0 10.09375 0 12.59375 0 
C 15 0 19.09375 0 21.40625 -0.203125 
L 21.40625 2.390625 
C 15.5 2.390625 15.296875 2.984375 15.296875 6.5625 
L 15.296875 43.375 
z
" id="CMR17-105"/>
       <path d="M 67.59375 30.203125 
C 67.59375 35.1875 66.703125 43.59375 54.796875 43.59375 
C 48 43.59375 43.296875 39 41.5 33.609375 
L 41.40625 33.609375 
C 40.203125 41.8125 34.296875 43.59375 28.703125 43.59375 
C 20.796875 43.59375 16.703125 37.5 15.203125 33.5 
L 15.09375 33.5 
L 15.09375 43.59375 
L 3.296875 42.5 
L 3.296875 39.90625 
C 9.203125 39.90625 10.09375 39.296875 10.09375 34.5 
L 10.09375 6.6875 
C 10.09375 2.875 9.703125 2.390625 3.296875 2.390625 
L 3.296875 -0.203125 
C 5.703125 0 10.09375 0 12.703125 0 
C 15.296875 0 19.796875 0 22.203125 -0.203125 
L 22.203125 2.390625 
C 15.796875 2.390625 15.40625 2.78125 15.40625 6.6875 
L 15.40625 25.90625 
C 15.40625 35.109375 21 42 28 42 
C 35.40625 42 36.203125 35.40625 36.203125 30.59375 
L 36.203125 6.6875 
C 36.203125 2.875 35.796875 2.390625 29.40625 2.390625 
L 29.40625 -0.203125 
C 31.796875 0 36.203125 0 38.796875 0 
C 41.40625 0 45.90625 0 48.296875 -0.203125 
L 48.296875 2.390625 
C 41.90625 2.390625 41.5 2.78125 41.5 6.6875 
L 41.5 25.90625 
C 41.5 35.109375 47.09375 42 54.09375 42 
C 61.5 42 62.296875 35.40625 62.296875 30.59375 
L 62.296875 6.6875 
C 62.296875 2.875 61.90625 2.390625 55.5 2.390625 
L 55.5 -0.203125 
C 57.90625 0 62.296875 0 64.90625 0 
C 67.5 0 72 0 74.40625 -0.203125 
L 74.40625 2.390625 
C 68 2.390625 67.59375 2.78125 67.59375 6.6875 
z
" id="CMR17-109"/>
       <path d="M 38.09375 23 
C 38.5 23.40625 38.5 23.609375 38.5 24.625 
C 38.5 34.96875 33.09375 44 21.703125 44 
C 11.09375 44 2.703125 33.890625 2.703125 21.609375 
C 2.703125 8.609375 12.203125 -1 22.796875 -1 
C 34 -1 38.40625 9.484375 38.40625 11.5625 
C 38.40625 12.25 37.796875 12.25 37.59375 12.25 
C 36.90625 12.25 36.796875 12.046875 36.40625 10.875 
C 34.203125 4.140625 28.703125 0.796875 23.5 0.796875 
C 19.203125 0.796875 14.90625 3.171875 12.203125 7.5 
C 9.09375 12.546875 9.09375 18.375 9.09375 23 
z
M 9.203125 24.5 
C 9.90625 39.140625 17.59375 42.40625 21.59375 42.40625 
C 28.40625 42.40625 33 35.890625 33.09375 24.5 
z
" id="CMR17-101"/>
       <path d="M 30.59375 -24.390625 
C 30.59375 -24.296875 30.59375 -24.09375 30.296875 -23.796875 
C 25.703125 -19.125 13.40625 -6.359375 13.40625 24.703125 
C 13.40625 55.765625 25.5 68.421875 30.40625 73.390625 
C 30.40625 73.5 30.59375 73.703125 30.59375 74 
C 30.59375 74.296875 30.296875 74.5 29.90625 74.5 
C 28.796875 74.5 20.296875 67.125 15.40625 56.15625 
C 10.40625 45.109375 9 34.359375 9 24.8125 
C 9 17.625 9.703125 5.484375 15.703125 -7.359375 
C 20.5 -17.734375 28.703125 -25 29.90625 -25 
C 30.40625 -25 30.59375 -24.796875 30.59375 -24.390625 
z
" id="CMR17-40"/>
       <path d="M 30.90625 42.140625 
C 30.90625 43.953125 30.796875 44.046875 30.203125 44.046875 
C 29.796875 44.046875 29.703125 43.953125 28.5 42.453125 
C 28.203125 42.046875 27.296875 41.03125 27 40.640625 
C 23.796875 44.046875 19.296875 44.046875 17.59375 44.046875 
C 6.5 44.046875 2.5 38.234375 2.5 32.4375 
C 2.5 23.40625 12.703125 21.328125 15.59375 20.703125 
C 21.90625 19.421875 24.09375 19.015625 26.203125 17.203125 
C 27.5 16.015625 29.703125 13.8125 29.703125 10.21875 
C 29.703125 6 27.296875 0.59375 18.09375 0.59375 
C 9.40625 0.59375 6.296875 7.1875 4.5 15.953125 
C 4.203125 17.34375 4.203125 17.453125 3.40625 17.453125 
C 2.59375 17.453125 2.5 17.34375 2.5 15.359375 
L 2.5 0.984375 
C 2.5 -0.796875 2.59375 -0.90625 3.203125 -0.90625 
C 3.703125 -0.90625 3.796875 -0.796875 4.296875 0 
C 4.90625 0.890625 6.40625 3.296875 7 4.3125 
C 9 1.609375 12.5 -1 18.09375 -1 
C 28 -1 33.296875 4.421875 33.296875 12.25 
C 33.296875 17.375 30.59375 20.078125 29.296875 21.28125 
C 26.296875 24.390625 22.796875 25.09375 18.59375 25.890625 
C 13.09375 27.109375 6.09375 28.515625 6.09375 34.640625 
C 6.09375 37.234375 7.5 42.765625 17.59375 42.765625 
C 28.296875 42.765625 28.90625 32.71875 29.09375 29.5 
C 29.203125 29 29.703125 28.890625 30 28.890625 
C 30.90625 28.890625 30.90625 29.203125 30.90625 30.90625 
z
" id="CMR17-115"/>
       <path d="M 26.296875 24.703125 
C 26.296875 31.875 25.59375 44.015625 19.59375 56.859375 
C 14.796875 67.234375 6.59375 74.5 5.40625 74.5 
C 5.09375 74.5 4.703125 74.390625 4.703125 73.890625 
C 4.703125 73.703125 4.796875 73.59375 4.90625 73.390625 
C 9.703125 68.40625 21.90625 55.75 21.90625 24.75 
C 21.90625 -6.359375 9.796875 -19.015625 4.90625 -24.015625 
C 4.796875 -24.203125 4.703125 -24.3125 4.703125 -24.5 
C 4.703125 -25 5.09375 -25 5.40625 -25 
C 6.5 -25 15 -17.625 19.90625 -6.65625 
C 24.90625 4.390625 26.296875 15.140625 26.296875 24.703125 
z
" id="CMR17-41"/>
      </defs>
      <use transform="scale(0.996264)" xlink:href="#CMR17-84"/>
      <use transform="translate(66.509881 0)scale(0.996264)" xlink:href="#CMR17-105"/>
      <use transform="translate(91.380939 0)scale(0.996264)" xlink:href="#CMR17-109"/>
      <use transform="translate(168.300529 0)scale(0.996264)" xlink:href="#CMR17-101"/>
      <use transform="translate(238.862156 0)scale(0.996264)" xlink:href="#CMR17-40"/>
      <use transform="translate(274.142924 0)scale(0.996264)" xlink:href="#CMR17-115"/>
      <use transform="translate(309.944261 0)scale(0.996264)" xlink:href="#CMR17-41"/>
     </g>
    </g>
   </g>
   <g id="matplotlib.axis_2">
    <g id="ytick_1">
     <g id="line2d_7">
      <defs>
       <path d="M 0 0 
L -3.5 0 
" id="mcfcfe5a1da" style="stroke:#000000;stroke-width:0.8;"/>
      </defs>
      <g>
       <use style="stroke:#000000;stroke-width:0.8;" x="56.7258" xlink:href="#mcfcfe5a1da" y="162.416755"/>
      </g>
     </g>
     <g id="text_8">
      <!-- $\mathdefault{0.00}$ -->
      <g transform="translate(28.915168 166.567845)scale(0.12 -0.12)">
       <use transform="scale(0.996264)" xlink:href="#CMR17-48"/>
       <use transform="translate(45.690477 0)scale(0.996264)" xlink:href="#CMMI12-58"/>
       <use transform="translate(72.787654 0)scale(0.996264)" xlink:href="#CMR17-48"/>
       <use transform="translate(118.478131 0)scale(0.996264)" xlink:href="#CMR17-48"/>
      </g>
     </g>
    </g>
    <g id="ytick_2">
     <g id="line2d_8">
      <g>
       <use style="stroke:#000000;stroke-width:0.8;" x="56.7258" xlink:href="#mcfcfe5a1da" y="133.320471"/>
      </g>
     </g>
     <g id="text_9">
      <!-- $\mathdefault{0.25}$ -->
      <g transform="translate(28.915168 137.471561)scale(0.12 -0.12)">
       <use transform="scale(0.996264)" xlink:href="#CMR17-48"/>
       <use transform="translate(45.690477 0)scale(0.996264)" xlink:href="#CMMI12-58"/>
       <use transform="translate(72.787654 0)scale(0.996264)" xlink:href="#CMR17-50"/>
       <use transform="translate(118.478131 0)scale(0.996264)" xlink:href="#CMR17-53"/>
      </g>
     </g>
    </g>
    <g id="ytick_3">
     <g id="line2d_9">
      <g>
       <use style="stroke:#000000;stroke-width:0.8;" x="56.7258" xlink:href="#mcfcfe5a1da" y="104.224186"/>
      </g>
     </g>
     <g id="text_10">
      <!-- $\mathdefault{0.50}$ -->
      <g transform="translate(28.915168 108.375276)scale(0.12 -0.12)">
       <use transform="scale(0.996264)" xlink:href="#CMR17-48"/>
       <use transform="translate(45.690477 0)scale(0.996264)" xlink:href="#CMMI12-58"/>
       <use transform="translate(72.787654 0)scale(0.996264)" xlink:href="#CMR17-53"/>
       <use transform="translate(118.478131 0)scale(0.996264)" xlink:href="#CMR17-48"/>
      </g>
     </g>
    </g>
    <g id="ytick_4">
     <g id="line2d_10">
      <g>
       <use style="stroke:#000000;stroke-width:0.8;" x="56.7258" xlink:href="#mcfcfe5a1da" y="75.127902"/>
      </g>
     </g>
     <g id="text_11">
      <!-- $\mathdefault{0.75}$ -->
      <g transform="translate(28.915168 79.278991)scale(0.12 -0.12)">
       <defs>
        <path d="M 45.09375 61.578125 
L 45.09375 63.765625 
L 21.59375 63.765625 
C 9.90625 63.765625 9.703125 65.078125 9.296875 67 
L 7.5 67 
L 4.59375 48.34375 
L 6.40625 48.34375 
C 6.703125 50.234375 7.40625 55.3125 8.59375 57.203125 
C 9.203125 58 16.59375 58 18.296875 58 
L 40.296875 58 
L 29.203125 41.578125 
C 21.796875 30.53125 16.703125 15.609375 16.703125 2.578125 
C 16.703125 1.390625 16.703125 -2 20.296875 -2 
C 23.90625 -2 23.90625 1.390625 23.90625 2.671875 
L 23.90625 7.265625 
C 23.90625 23.5625 26.703125 34.3125 31.296875 41.1875 
z
" id="CMR17-55"/>
       </defs>
       <use transform="scale(0.996264)" xlink:href="#CMR17-48"/>
       <use transform="translate(45.690477 0)scale(0.996264)" xlink:href="#CMMI12-58"/>
       <use transform="translate(72.787654 0)scale(0.996264)" xlink:href="#CMR17-55"/>
       <use transform="translate(118.478131 0)scale(0.996264)" xlink:href="#CMR17-53"/>
      </g>
     </g>
    </g>
    <g id="ytick_5">
     <g id="line2d_11">
      <g>
       <use style="stroke:#000000;stroke-width:0.8;" x="56.7258" xlink:href="#mcfcfe5a1da" y="46.031617"/>
      </g>
     </g>
     <g id="text_12">
      <!-- $\mathdefault{1.00}$ -->
      <g transform="translate(28.915168 50.182707)scale(0.12 -0.12)">
       <use transform="scale(0.996264)" xlink:href="#CMR17-49"/>
       <use transform="translate(45.690477 0)scale(0.996264)" xlink:href="#CMMI12-58"/>
       <use transform="translate(72.787654 0)scale(0.996264)" xlink:href="#CMR17-48"/>
       <use transform="translate(118.478131 0)scale(0.996264)" xlink:href="#CMR17-48"/>
      </g>
     </g>
    </g>
    <g id="ytick_6">
     <g id="line2d_12">
      <g>
       <use style="stroke:#000000;stroke-width:0.8;" x="56.7258" xlink:href="#mcfcfe5a1da" y="16.935332"/>
      </g>
     </g>
     <g id="text_13">
      <!-- $\mathdefault{1.25}$ -->
      <g transform="translate(28.915168 21.086422)scale(0.12 -0.12)">
       <use transform="scale(0.996264)" xlink:href="#CMR17-49"/>
       <use transform="translate(45.690477 0)scale(0.996264)" xlink:href="#CMMI12-58"/>
       <use transform="translate(72.787654 0)scale(0.996264)" xlink:href="#CMR17-50"/>
       <use transform="translate(118.478131 0)scale(0.996264)" xlink:href="#CMR17-53"/>
      </g>
     </g>
    </g>
    <g id="text_14">
     <!-- Error (s) -->
     <g transform="translate(21.926376 114.552984)rotate(-90)scale(0.12 -0.12)">
      <defs>
       <path d="M 60.703125 25.234375 
L 58.90625 25.234375 
C 56.703125 10.5625 55.40625 2.59375 37.796875 2.59375 
L 23.90625 2.59375 
C 19.90625 2.59375 19.703125 3.078125 19.703125 6.46875 
L 19.703125 34 
L 29.09375 34 
C 38.5 34 39.40625 30.625 39.40625 22.34375 
L 41.203125 22.34375 
L 41.203125 48.140625 
L 39.40625 48.140625 
C 39.40625 39.953125 38.5 36.59375 29.09375 36.59375 
L 19.703125 36.59375 
L 19.703125 61.140625 
C 19.703125 64.5 19.90625 65 23.90625 65 
L 37.59375 65 
C 53.09375 65 54.90625 58.890625 56.296875 45.765625 
L 58.09375 45.765625 
L 55.703125 67.578125 
L 5.09375 67.578125 
L 5.09375 65 
C 12 65 13.09375 65 13.09375 60.53125 
L 13.09375 7.046875 
C 13.09375 2.59375 12 2.59375 5.09375 2.59375 
L 5.09375 0 
L 57.09375 0 
z
" id="CMR17-69"/>
       <path d="M 15 23.390625 
C 15 33 19.09375 42 26.59375 42 
C 27.296875 42 28 41.90625 28.703125 41.59375 
C 28.703125 41.59375 26.5 40.890625 26.5 38.3125 
C 26.5 35.90625 28.40625 34.90625 29.90625 34.90625 
C 31.09375 34.90625 33.296875 35.609375 33.296875 38.40625 
C 33.296875 41.609375 30.09375 43.59375 26.703125 43.59375 
C 19.09375 43.59375 15.796875 36.203125 14.796875 32.703125 
L 14.703125 32.703125 
L 14.703125 43.59375 
L 3.09375 42.5 
L 3.09375 39.90625 
C 9 39.90625 9.90625 39.296875 9.90625 34.5 
L 9.90625 6.6875 
C 9.90625 2.875 9.5 2.390625 3.09375 2.390625 
L 3.09375 -0.203125 
C 5.5 0 10.09375 0 12.703125 0 
C 15.59375 0 20.703125 0 23.40625 -0.203125 
L 23.40625 2.390625 
C 16.203125 2.390625 15 2.390625 15 6.875 
z
" id="CMR17-114"/>
       <path d="M 43.09375 21.1875 
C 43.09375 34 33.796875 44 22.90625 44 
C 12 44 2.703125 34 2.703125 21.1875 
C 2.703125 8.609375 12 -1 22.90625 -1 
C 33.796875 -1 43.09375 8.609375 43.09375 21.1875 
z
M 22.90625 0.796875 
C 18.203125 0.796875 14.203125 3.59375 11.90625 7.5 
C 9.40625 11.984375 9.09375 17.59375 9.09375 22 
C 9.09375 26.203125 9.296875 31.40625 11.90625 35.90625 
C 13.90625 39.203125 17.796875 42.40625 22.90625 42.40625 
C 27.40625 42.40625 31.203125 39.90625 33.59375 36.40625 
C 36.703125 31.703125 36.703125 25.109375 36.703125 22 
C 36.703125 18.09375 36.5 12.109375 33.796875 7.296875 
C 31 2.703125 26.703125 0.796875 22.90625 0.796875 
z
" id="CMR17-111"/>
      </defs>
      <use transform="scale(0.996264)" xlink:href="#CMR17-69"/>
      <use transform="translate(62.586301 0)scale(0.996264)" xlink:href="#CMR17-114"/>
      <use transform="translate(97.867068 0)scale(0.996264)" xlink:href="#CMR17-114"/>
      <use transform="translate(133.147836 0)scale(0.996264)" xlink:href="#CMR17-111"/>
      <use transform="translate(178.838313 0)scale(0.996264)" xlink:href="#CMR17-114"/>
      <use transform="translate(244.195047 0)scale(0.996264)" xlink:href="#CMR17-40"/>
      <use transform="translate(279.475815 0)scale(0.996264)" xlink:href="#CMR17-115"/>
      <use transform="translate(315.277153 0)scale(0.996264)" xlink:href="#CMR17-41"/>
     </g>
    </g>
   </g>
   <g id="line2d_13">
    <path clip-path="url(#pe3d7cbb3b2)" d="M 73.194627 162.416755 
L 73.326483 162.416755 
L 73.590196 162.183985 
L 73.722052 162.416755 
L 73.853908 162.183985 
L 73.985764 162.183985 
L 74.11762 161.951215 
L 74.249476 161.951215 
L 74.381332 162.416755 
L 74.513188 161.83483 
L 74.645045 161.951215 
L 74.908757 161.718445 
L 75.040613 161.83483 
L 75.172469 161.485674 
L 75.304325 161.485674 
L 75.436181 161.718445 
L 75.699893 161.252904 
L 75.831749 161.369289 
L 76.095462 161.83483 
L 76.227318 161.020134 
L 76.359174 161.252904 
L 76.49103 161.252904 
L 76.622886 161.83483 
L 76.886598 160.787363 
L 77.018454 161.252904 
L 77.15031 161.252904 
L 77.282167 161.020134 
L 77.414023 161.136519 
L 77.545879 161.485674 
L 77.677735 160.670978 
L 77.809591 161.020134 
L 77.941447 160.321823 
L 78.073303 160.321823 
L 78.205159 161.83483 
L 78.337015 160.089053 
L 78.468872 160.321823 
L 78.732584 159.972668 
L 78.86444 159.856282 
L 78.996296 160.089053 
L 79.128152 159.856282 
L 79.260008 159.856282 
L 79.391864 161.020134 
L 79.52372 159.739897 
L 79.787433 160.205438 
L 79.919289 160.321823 
L 80.051145 161.252904 
L 80.183001 159.623512 
L 80.446713 161.020134 
L 80.578569 159.274357 
L 80.710425 160.321823 
L 80.842281 159.274357 
L 80.974137 160.089053 
L 81.105994 158.925201 
L 81.369706 159.856282 
L 81.501562 158.925201 
L 81.633418 158.925201 
L 81.89713 160.089053 
L 82.028986 161.485674 
L 82.292698 158.925201 
L 82.424555 159.274357 
L 82.556411 158.692431 
L 82.688267 161.369289 
L 82.820123 158.692431 
L 82.951979 158.925201 
L 83.083835 158.925201 
L 83.347547 158.22689 
L 83.479403 158.576046 
L 83.61126 157.76135 
L 83.874972 160.321823 
L 84.006828 158.22689 
L 84.138684 160.089053 
L 84.534252 157.412194 
L 84.797964 157.877735 
L 84.929821 157.76135 
L 85.061677 157.295809 
L 85.193533 157.295809 
L 85.589101 158.925201 
L 85.720957 161.020134 
L 85.852813 157.412194 
L 85.984669 159.390742 
L 86.248382 156.597499 
L 86.380238 160.089053 
L 86.512094 157.52858 
L 86.64395 159.041586 
L 86.775806 156.830269 
L 86.907662 157.76135 
L 87.039518 161.252904 
L 87.171374 156.713884 
L 87.30323 158.692431 
L 87.435087 156.131958 
L 87.566943 156.597499 
L 87.698799 156.015573 
L 87.830655 161.020134 
L 87.962511 156.364728 
L 88.094367 158.925201 
L 88.226223 157.179424 
L 88.489935 157.52858 
L 88.621791 156.131958 
L 88.753648 159.390742 
L 88.885504 155.433647 
L 89.01736 159.274357 
L 89.149216 156.597499 
L 89.281072 157.877735 
L 89.412928 156.364728 
L 89.544784 156.597499 
L 89.67664 159.856282 
L 89.940352 156.364728 
L 90.072209 157.99412 
L 90.204065 155.433647 
L 90.335921 157.644965 
L 90.599633 154.851721 
L 90.731489 156.131958 
L 90.863345 158.925201 
L 90.995201 154.735336 
L 91.258914 157.295809 
L 91.39077 154.735336 
L 91.522626 157.76135 
L 91.654482 154.386181 
L 92.05005 157.76135 
L 92.181906 157.76135 
L 92.313762 154.269796 
L 92.577475 158.692431 
L 92.709331 155.084492 
L 92.841187 156.597499 
L 93.236755 154.269796 
L 93.368611 156.830269 
L 93.500467 156.015573 
L 93.632323 158.22689 
L 93.764179 153.92064 
L 93.896036 154.269796 
L 94.159748 157.76135 
L 94.291604 154.153411 
L 94.42346 155.899188 
L 94.555316 156.015573 
L 94.687172 153.105944 
L 94.819028 155.433647 
L 94.950884 153.804255 
L 95.08274 155.899188 
L 95.214597 154.968107 
L 95.346453 158.22689 
L 95.610165 152.640404 
L 95.873877 157.644965 
L 96.005733 157.295809 
L 96.137589 152.524019 
L 96.401302 156.481113 
L 96.665014 152.640404 
L 96.79687 154.269796 
L 96.928726 153.4551 
L 97.060582 156.830269 
L 97.192438 151.825708 
L 97.324294 156.830269 
L 97.45615 156.015573 
L 97.588006 152.174863 
L 97.719863 151.592938 
L 98.115431 158.925201 
L 98.379143 151.476552 
L 98.642855 156.131958 
L 98.906567 151.243782 
L 99.038424 153.105944 
L 99.17028 152.174863 
L 99.302136 153.105944 
L 99.433992 156.597499 
L 99.565848 153.105944 
L 99.697704 152.873174 
L 99.82956 157.412194 
L 100.093272 150.778242 
L 100.225129 150.778242 
L 100.356985 151.476552 
L 100.620697 156.713884 
L 100.752553 157.76135 
L 101.016265 151.011012 
L 101.148121 152.407634 
L 101.279977 155.666417 
L 101.411833 154.851721 
L 101.807402 150.079931 
L 101.939258 152.873174 
L 102.071114 149.61439 
L 102.334826 155.899188 
L 102.466682 154.502566 
L 102.598538 150.312701 
L 102.862251 156.364728 
L 103.125963 150.079931 
L 103.257819 150.545471 
L 103.389675 149.61439 
L 103.521531 150.079931 
L 103.785243 155.550032 
L 103.917099 157.52858 
L 104.180812 152.407634 
L 104.312668 149.38162 
L 104.444524 150.079931 
L 104.708236 155.433647 
L 105.23566 148.916079 
L 105.367517 148.450539 
L 105.499373 150.778242 
L 105.631229 148.217769 
L 106.026797 156.597499 
L 106.422365 148.799694 
L 106.686078 154.269796 
L 106.94979 148.683309 
L 107.081646 148.916079 
L 107.213502 147.984998 
L 107.345358 148.450539 
L 107.477214 147.286687 
L 107.872782 155.433647 
L 108.004639 157.179424 
L 108.532063 147.053917 
L 108.663919 147.286687 
L 108.927631 154.037025 
L 109.059487 153.68787 
L 109.586912 146.704762 
L 109.718768 147.519458 
L 109.850624 147.170302 
L 109.98248 148.450539 
L 110.114336 147.053917 
L 110.246192 147.519458 
L 110.773617 156.830269 
L 111.169185 147.053917 
L 111.301041 147.286687 
L 111.564753 152.873174 
L 111.960322 145.54091 
L 112.092178 147.286687 
L 112.35589 145.424525 
L 112.487746 146.937532 
L 112.619602 146.122836 
L 112.751458 146.821147 
L 113.147027 154.502566 
L 113.278883 156.015573 
L 113.674451 149.61439 
L 113.938163 144.958985 
L 114.070019 146.006451 
L 114.201875 144.726214 
L 114.465588 149.61439 
L 114.597444 152.524019 
L 114.7293 152.174863 
L 115.520436 144.260674 
L 115.784149 146.122836 
L 115.916005 143.795133 
L 116.047861 145.657295 
L 116.179717 143.445978 
L 117.10271 155.899188 
L 117.76199 143.445978 
L 118.157559 150.079931 
L 118.684983 142.864052 
L 118.816839 144.8426 
L 118.948695 144.260674 
L 119.212407 142.631282 
L 119.47612 145.191755 
L 119.739832 142.398512 
L 120.399112 154.153411 
L 120.530968 154.269796 
L 121.453961 141.700201 
L 121.717673 144.027904 
L 121.849529 141.467431 
L 121.981386 142.747667 
L 122.376954 150.079931 
L 122.50881 150.196316 
L 123.563659 140.303579 
L 123.959227 143.795133 
L 124.091083 142.980437 
L 124.222939 140.536349 
L 124.354795 141.467431 
L 124.486651 140.303579 
L 124.618508 140.885505 
L 125.805212 156.597499 
L 125.937069 155.433647 
L 126.860061 139.139728 
L 127.123774 142.631282 
L 127.387486 147.053917 
L 128.046766 138.557802 
L 128.178622 139.372498 
L 128.442335 141.467431 
L 128.837903 137.975876 
L 129.101615 139.721653 
L 129.497183 142.398512 
L 129.760896 137.975876 
L 129.892752 138.906957 
L 130.815744 152.873174 
L 132.134305 136.579255 
L 132.398018 139.139728 
L 132.66173 141.932971 
L 133.057298 136.230099 
L 133.848435 147.403073 
L 135.430708 134.949863 
L 136.221845 140.536349 
L 136.881125 134.251552 
L 138.990823 156.597499 
L 139.122679 155.899188 
L 140.704952 133.553241 
L 140.836808 133.320471 
L 141.496089 141.700201 
L 142.419081 131.923849 
L 142.946506 136.812025 
L 143.737643 131.225538 
L 144.792491 137.743106 
L 144.924347 137.393951 
L 145.451772 130.527227 
L 146.902189 148.450539 
L 147.034045 148.334154 
L 149.011887 129.130606 
L 149.275599 130.992768 
L 150.066735 137.277566 
L 150.857872 128.665065 
L 152.044577 142.282126 
L 154.549843 126.802903 
L 154.681699 126.802903 
L 156.00026 133.786011 
L 156.132116 133.320471 
L 157.055109 125.522667 
L 161.010792 156.946654 
L 161.40636 153.105944 
L 164.307195 122.380268 
L 164.570907 124.4752 
L 165.362043 132.156619 
L 165.4939 132.273005 
L 166.944317 121.216416 
L 167.867309 127.733984 
L 167.999165 127.501214 
L 169.449583 119.93618 
L 171.822992 129.945302 
L 173.009697 118.423173 
L 173.537122 122.845808 
L 175.646819 141.467431 
L 175.778676 141.23466 
L 179.470646 115.746315 
L 181.7122 129.596146 
L 182.239625 125.173511 
L 183.558186 113.767768 
L 185.931595 132.156619 
L 190.810271 110.625369 
L 190.942127 110.741754 
L 193.711106 120.518106 
L 193.842962 120.285335 
L 195.820803 108.414051 
L 196.216372 110.508984 
L 196.480084 108.414051 
L 196.61194 108.414051 
L 199.380918 127.268444 
L 205.05073 156.830269 
L 212.962097 100.965402 
L 213.093953 101.198173 
L 215.20365 113.767768 
L 218.104485 98.404929 
L 220.609751 109.345132 
L 224.565434 95.728071 
L 231.026383 112.836686 
L 234.586497 91.421821 
L 241.047447 125.173511 
L 250.277374 84.438713 
L 250.40923 84.438713 
L 257.793172 110.508984 
L 263.858552 78.386685 
L 263.990408 78.619456 
L 270.583214 107.2502 
L 285.087385 68.843104 
L 294.317312 85.137023 
L 294.449168 84.904253 
L 301.041973 61.976381 
L 303.942808 69.6578 
L 304.20652 68.726719 
L 306.316218 59.532293 
L 325.303496 126.220977 
L 336.906833 156.946654 
L 337.03869 156.830269 
L 372.90355 30.203238 
L 373.035406 30.319623 
L 380.946772 51.268948 
L 392.154541 21.590738 
L 402.571173 39.97959 
L 402.571173 39.97959 
" style="fill:none;stroke:#1f77b4;stroke-linecap:square;stroke-width:1.5;"/>
   </g>
   <g id="line2d_14">
    <path clip-path="url(#pe3d7cbb3b2)" d="M 56.7258 148.101383 
L 419.04 148.101383 
" style="fill:none;stroke:#000000;stroke-linecap:square;stroke-width:2;"/>
   </g>
   <g id="patch_3">
    <path d="M 56.7258 169.458056 
L 56.7258 14.549437 
" style="fill:none;stroke:#000000;stroke-linecap:square;stroke-linejoin:miter;stroke-width:0.8;"/>
   </g>
   <g id="patch_4">
    <path d="M 419.04 169.458056 
L 419.04 14.549437 
" style="fill:none;stroke:#000000;stroke-linecap:square;stroke-linejoin:miter;stroke-width:0.8;"/>
   </g>
   <g id="patch_5">
    <path d="M 56.7258 169.458056 
L 419.04 169.458056 
" style="fill:none;stroke:#000000;stroke-linecap:square;stroke-linejoin:miter;stroke-width:0.8;"/>
   </g>
   <g id="patch_6">
    <path d="M 56.7258 14.549437 
L 419.04 14.549437 
" style="fill:none;stroke:#000000;stroke-linecap:square;stroke-linejoin:miter;stroke-width:0.8;"/>
   </g>
   <g id="legend_1">
    <g id="patch_7">
     <path d="M 65.1258 58.829201 
L 222.582283 58.829201 
Q 224.982283 58.829201 224.982283 56.429201 
L 224.982283 22.949437 
Q 224.982283 20.549437 222.582283 20.549437 
L 65.1258 20.549437 
Q 62.7258 20.549437 62.7258 22.949437 
L 62.7258 56.429201 
Q 62.7258 58.829201 65.1258 58.829201 
z
" style="fill:#ffffff;opacity:0.8;stroke:#cccccc;stroke-linejoin:miter;"/>
    </g>
    <g id="line2d_15">
     <path d="M 67.5258 30.115813 
L 91.5258 30.115813 
" style="fill:none;stroke:#000000;stroke-linecap:square;stroke-width:2;"/>
    </g>
    <g id="line2d_16"/>
    <g id="text_15">
     <!-- threshold ($\tau$ = 0.125 s) -->
     <g transform="translate(101.1258 34.315813)scale(0.12 -0.12)">
      <defs>
       <path d="M 15.09375 40 
L 29.09375 40 
L 29.09375 42.578125 
L 15.09375 42.578125 
L 15.09375 61 
L 13.296875 61 
C 13.09375 50.703125 9.59375 41.6875 1.09375 41.6875 
L 1.09375 40 
L 9.796875 40 
L 9.796875 12.046875 
C 9.796875 10.15625 9.796875 -1 21.40625 -1 
C 27.296875 -1 30.703125 4.78125 30.703125 12.140625 
L 30.703125 17.8125 
L 28.90625 17.8125 
L 28.90625 12.234375 
C 28.90625 5.375 26.203125 0.796875 22 0.796875 
C 19.09375 0.796875 15.09375 2.78125 15.09375 11.84375 
z
" id="CMR17-116"/>
       <path d="M 41.5 30.203125 
C 41.5 35.296875 40.5 43.59375 28.703125 43.59375 
C 20.5 43.59375 16.5 37 15.296875 33.703125 
L 15.203125 33.703125 
L 15.203125 68.6875 
L 3.296875 67.59375 
L 3.296875 65 
C 9.203125 65 10.09375 64.40625 10.09375 59.640625 
L 10.09375 6.65625 
C 10.09375 2.875 9.703125 2.390625 3.296875 2.390625 
L 3.296875 -0.203125 
C 5.703125 0 10.09375 0 12.703125 0 
C 15.296875 0 19.796875 0 22.203125 -0.203125 
L 22.203125 2.390625 
C 15.796875 2.390625 15.40625 2.78125 15.40625 6.6875 
L 15.40625 25.90625 
C 15.40625 35.109375 21 42 28 42 
C 35.40625 42 36.203125 35.40625 36.203125 30.59375 
L 36.203125 6.6875 
C 36.203125 2.875 35.796875 2.390625 29.40625 2.390625 
L 29.40625 -0.203125 
C 31.796875 0 36.203125 0 38.796875 0 
C 41.40625 0 45.90625 0 48.296875 -0.203125 
L 48.296875 2.390625 
C 41.90625 2.390625 41.5 2.78125 41.5 6.6875 
z
" id="CMR17-104"/>
       <path d="M 15.296875 68.6875 
L 3.40625 67.59375 
L 3.40625 65 
C 9.296875 65 10.203125 64.40625 10.203125 59.640625 
L 10.203125 6.65625 
C 10.203125 2.875 9.796875 2.390625 3.40625 2.390625 
L 3.40625 -0.203125 
C 5.796875 0 10.203125 0 12.703125 0 
C 15.296875 0 19.703125 0 22.09375 -0.203125 
L 22.09375 2.390625 
C 15.703125 2.390625 15.296875 2.78125 15.296875 6.65625 
z
" id="CMR17-108"/>
       <path d="M 29.203125 67.59375 
L 29.203125 65 
C 35.09375 65 36 64.40625 36 59.6875 
L 36 36.640625 
C 35.59375 37.140625 31.5 43.59375 23.40625 43.59375 
C 13.203125 43.59375 3.296875 34.5 3.296875 21.3125 
C 3.296875 8.203125 12.59375 -1 22.40625 -1 
C 30.90625 -1 35.296875 5.265625 35.796875 5.9375 
L 35.796875 -0.984375 
L 47.90625 -0.984375 
L 47.90625 2 
C 42 2 41.09375 2.59375 41.09375 7.390625 
L 41.09375 68.6875 
z
M 35.796875 11.796875 
C 35.796875 8.796875 34 6.09375 31.703125 4.09375 
C 28.296875 1.09375 24.90625 0.59375 23 0.59375 
C 20.09375 0.59375 9.703125 2.09375 9.703125 21.1875 
C 9.703125 40.8125 21.296875 42 23.90625 42 
C 28.5 42 32.203125 39.40625 34.5 35.796875 
C 35.796875 33.703125 35.796875 33.40625 35.796875 31.609375 
z
" id="CMR17-100"/>
       <path d="M 28.703125 37.625 
L 45.296875 37.625 
C 46.59375 37.625 49.90625 37.625 49.90625 40.8125 
C 49.90625 43 48 43 46.203125 43 
L 18.703125 43 
C 16.40625 43 13 43 8.40625 38.125 
C 5.796875 35.234375 2.59375 29.953125 2.59375 29.359375 
C 2.59375 28.765625 3.09375 28.5625 3.703125 28.5625 
C 4.40625 28.5625 4.5 28.859375 5 29.453125 
C 10.203125 37.625 15.40625 37.625 17.90625 37.625 
L 26.203125 37.625 
L 15.796875 3.484375 
C 15.296875 1.984375 15.296875 1.78125 15.296875 1.484375 
C 15.296875 0.390625 16 -1 18 -1 
C 21.09375 -1 21.59375 1.6875 21.90625 3.171875 
z
" id="CMMI12-28"/>
       <path d="M 64.296875 31.515625 
C 65.796875 31.515625 67.296875 31.515625 67.296875 33.203125 
C 67.296875 35 65.59375 35 63.90625 35 
L 8 35 
C 6.296875 35 4.59375 35 4.59375 33.203125 
C 4.59375 31.515625 6.09375 31.515625 7.59375 31.515625 
z
M 63.90625 14 
C 65.59375 14 67.296875 14 67.296875 15.796875 
C 67.296875 17.484375 65.796875 17.484375 64.296875 17.484375 
L 7.59375 17.484375 
C 6.09375 17.484375 4.59375 17.484375 4.59375 15.796875 
C 4.59375 14 6.296875 14 8 14 
z
" id="CMR17-61"/>
       <path d="M 16.59375 4.078125 
C 16.59375 6.5625 14.59375 8.15625 12.5 8.15625 
C 10.5 8.15625 8.40625 6.5625 8.40625 4.078125 
C 8.40625 1.59375 10.40625 0 12.5 0 
C 14.5 0 16.59375 1.59375 16.59375 4.078125 
z
" id="CMR17-46"/>
      </defs>
      <use transform="scale(0.996264)" xlink:href="#CMR17-116"/>
      <use transform="translate(35.280768 0)scale(0.996264)" xlink:href="#CMR17-104"/>
      <use transform="translate(86.176138 0)scale(0.996264)" xlink:href="#CMR17-114"/>
      <use transform="translate(121.456905 0)scale(0.996264)" xlink:href="#CMR17-101"/>
      <use transform="translate(161.942566 0)scale(0.996264)" xlink:href="#CMR17-115"/>
      <use transform="translate(197.743903 0)scale(0.996264)" xlink:href="#CMR17-104"/>
      <use transform="translate(248.639273 0)scale(0.996264)" xlink:href="#CMR17-111"/>
      <use transform="translate(294.32975 0)scale(0.996264)" xlink:href="#CMR17-108"/>
      <use transform="translate(319.200809 0)scale(0.996264)" xlink:href="#CMR17-100"/>
      <use transform="translate(400.172145 0)scale(0.996264)" xlink:href="#CMR17-40"/>
      <use transform="translate(435.452913 0)scale(0.996264)" xlink:href="#CMMI12-28"/>
      <use transform="translate(519.020044 0)scale(0.996264)" xlink:href="#CMR17-61"/>
      <use transform="translate(620.810799 0)scale(0.996264)" xlink:href="#CMR17-48"/>
      <use transform="translate(666.501276 0)scale(0.996264)" xlink:href="#CMR17-46"/>
      <use transform="translate(691.372335 0)scale(0.996264)" xlink:href="#CMR17-49"/>
      <use transform="translate(737.062812 0)scale(0.996264)" xlink:href="#CMR17-50"/>
      <use transform="translate(782.753289 0)scale(0.996264)" xlink:href="#CMR17-53"/>
      <use transform="translate(858.519733 0)scale(0.996264)" xlink:href="#CMR17-115"/>
      <use transform="translate(894.32107 0)scale(0.996264)" xlink:href="#CMR17-41"/>
     </g>
    </g>
    <g id="line2d_17">
     <path d="M 67.5258 47.504605 
L 91.5258 47.504605 
" style="fill:none;stroke:#1f77b4;stroke-linecap:square;stroke-width:1.5;"/>
    </g>
    <g id="line2d_18"/>
    <g id="text_16">
     <!-- $\epsilon_{T}$ -->
     <g transform="translate(101.1258 51.704605)scale(0.12 -0.12)">
      <defs>
       <path d="M 29.09375 22.921875 
C 30.59375 22.921875 32.296875 22.921875 32.296875 24.515625 
C 32.296875 25.8125 31.296875 25.8125 29.5 25.8125 
L 13.296875 25.8125 
C 15.796875 34.78125 21.703125 40.203125 30.59375 40.203125 
L 33.5 40.203125 
C 35.203125 40.203125 36.703125 40.203125 36.703125 41.796875 
C 36.703125 43.09375 35.59375 43.09375 33.796875 43.09375 
L 30.40625 43.09375 
C 18.09375 43.09375 4.59375 33.296875 4.59375 17.59375 
C 4.59375 6.5 12.09375 -1 22 -1 
C 28.40625 -1 34.703125 3.03125 34.703125 4.03125 
C 34.703125 4.625 34.40625 5.25 33.796875 5.25 
C 33.5 5.25 33.296875 5.140625 32.796875 4.75 
C 29 2.21875 25.296875 1 22.296875 1 
C 17 1 11.40625 4.53125 11.40625 14.34375 
C 11.40625 16.25 11.59375 18.875 12.5 22.921875 
z
" id="CMMI12-15"/>
       <path d="M 41.703125 61.09375 
C 42.296875 63.5 42.5 64.390625 44 64.796875 
C 44.796875 65 48.09375 65 50.203125 65 
C 60.203125 65 64.90625 64.59375 64.90625 56.78125 
C 64.90625 55.265625 64.5 51.484375 63.90625 47.765625 
L 63.796875 46.5625 
C 63.796875 46.15625 64.203125 45.5625 64.796875 45.5625 
C 65.796875 45.5625 65.796875 46.0625 66.09375 47.65625 
L 69 65.375 
C 69.203125 66.296875 69.203125 66.5 69.203125 66.796875 
C 69.203125 67.890625 68.59375 67.890625 66.59375 67.890625 
L 11.90625 67.890625 
C 9.59375 67.890625 9.5 67.796875 8.90625 66 
L 2.796875 47.96875 
C 2.703125 47.75 2.40625 46.65625 2.40625 46.5625 
C 2.40625 46.0625 2.796875 45.5625 3.40625 45.5625 
C 4.203125 45.5625 4.40625 45.953125 4.796875 47.25 
C 9 59.390625 11.09375 65 24.40625 65 
L 31.09375 65 
C 33.5 65 34.5 65 34.5 63.890625 
C 34.5 63.578125 34.5 63.390625 34 61.578125 
L 20.59375 7.796875 
C 19.59375 3.890625 19.40625 2.890625 8.796875 2.890625 
C 6.296875 2.890625 5.59375 2.890625 5.59375 1 
C 5.59375 0 6.703125 0 7.203125 0 
C 9.703125 0 12.296875 0 14.796875 0 
L 30.40625 0 
C 32.90625 0 35.59375 0 38.09375 0 
C 39.203125 0 40.203125 0 40.203125 1.890625 
C 40.203125 2.890625 39.5 2.890625 36.90625 2.890625 
C 27.90625 2.890625 27.90625 3.796875 27.90625 5.296875 
C 27.90625 5.40625 27.90625 6.109375 28.296875 7.71875 
z
" id="CMMI12-84"/>
      </defs>
      <use transform="scale(0.996264)" xlink:href="#CMMI12-15"/>
      <use transform="translate(39.388958 -14.943915)scale(0.697382)" xlink:href="#CMMI12-84"/>
     </g>
    </g>
   </g>
  </g>
 </g>
 <defs>
  <clipPath id="pe3d7cbb3b2">
   <rect height="154.908619" width="362.3142" x="56.7258" y="14.549437"/>
  </clipPath>
 </defs>
</svg>
