<?xml version="1.0" encoding="utf-8" standalone="no"?>
<!DOCTYPE svg PUBLIC "-//W3C//DTD SVG 1.1//EN"
  "http://www.w3.org/Graphics/SVG/1.1/DTD/svg11.dtd">
<!-- Created with matplotlib (https://matplotlib.org/) -->
<svg height="216pt" version="1.1" viewBox="0 0 432 216" width="432pt" xmlns="http://www.w3.org/2000/svg" xmlns:xlink="http://www.w3.org/1999/xlink">
 <metadata>
  <rdf:RDF xmlns:cc="http://creativecommons.org/ns#" xmlns:dc="http://purl.org/dc/elements/1.1/" xmlns:rdf="http://www.w3.org/1999/02/22-rdf-syntax-ns#">
   <cc:Work>
    <dc:type rdf:resource="http://purl.org/dc/dcmitype/StillImage"/>
    <dc:date>2022-05-09T23:17:18.557983</dc:date>
    <dc:format>image/svg+xml</dc:format>
    <dc:creator>
     <cc:Agent>
      <dc:title>Matplotlib v3.3.2, https://matplotlib.org/</dc:title>
     </cc:Agent>
    </dc:creator>
   </cc:Work>
  </rdf:RDF>
 </metadata>
 <defs>
  <style type="text/css">*{stroke-linecap:butt;stroke-linejoin:round;}</style>
 </defs>
 <g id="figure_1">
  <g id="patch_1">
   <path d="M 0 216 
L 432 216 
L 432 0 
L 0 0 
z
" style="fill:none;"/>
  </g>
  <g id="axes_1">
   <g id="patch_2">
    <path d="M 58.25 168.1 
L 419.04 168.1 
L 419.04 14.808347 
L 58.25 14.808347 
z
" style="fill:none;"/>
   </g>
   <g id="matplotlib.axis_1">
    <g id="xtick_1">
     <g id="line2d_1">
      <defs>
       <path d="M 0 0 
L 0 3.5 
" id="me869c02cbc" style="stroke:#000000;stroke-width:0.8;"/>
      </defs>
      <g>
       <use style="stroke:#000000;stroke-width:0.8;" x="74.518244" xlink:href="#me869c02cbc" y="168.1"/>
      </g>
     </g>
     <g id="text_1">
      <!-- 0.0 -->
      <g transform="translate(66.851369 183.426875)scale(0.12 -0.12)">
       <defs>
        <path d="M 3.90625 31.984375 
Q 3.90625 46.6875 7.625 54.6875 
Q 12.796875 66.609375 25 66.609375 
Q 27.59375 66.609375 30.296875 65.890625 
Q 33.015625 65.1875 36.453125 62.5 
Q 39.890625 59.8125 42 55.421875 
Q 46 46.921875 46 31.984375 
Q 46 17.390625 42.28125 9.421875 
Q 36.859375 -2.203125 24.90625 -2.203125 
Q 20.40625 -2.203125 15.84375 0.09375 
Q 11.28125 2.390625 8.40625 7.90625 
Q 3.90625 16.15625 3.90625 31.984375 
z
M 12.203125 33.203125 
Q 12.203125 18.109375 13.28125 12.109375 
Q 14.5 5.609375 17.84375 2.796875 
Q 21.1875 0 24.90625 0 
Q 28.90625 0 32.25 3 
Q 35.59375 6 36.625 12.5 
Q 37.75 18.890625 37.703125 33.203125 
Q 37.703125 47.125 36.71875 52.6875 
Q 35.40625 59.1875 31.90625 61.796875 
Q 28.421875 64.40625 24.90625 64.40625 
Q 23.578125 64.40625 22.1875 64.015625 
Q 20.796875 63.625 18.796875 62.5 
Q 16.796875 61.375 15.25 58.59375 
Q 13.71875 55.8125 12.984375 51.609375 
Q 12.203125 46.1875 12.203125 33.203125 
z
" id="CMUSerif-Roman-48"/>
        <path d="M 11.53125 0 
Q 8.5 3.21875 8.5 5.3125 
Q 8.5 7.421875 10.015625 8.953125 
Q 11.53125 10.5 13.8125 10.5 
Q 16.015625 10.5 17.5 9.0625 
Q 19 7.625 19 5.296875 
Q 19 2.984375 17.40625 1.484375 
Q 15.828125 0 13.8125 0 
Q 11.53125 0 8.5 3.21875 
z
" id="CMUSerif-Roman-46"/>
       </defs>
       <use xlink:href="#CMUSerif-Roman-48"/>
       <use x="50" xlink:href="#CMUSerif-Roman-46"/>
       <use x="77.783203" xlink:href="#CMUSerif-Roman-48"/>
      </g>
     </g>
    </g>
    <g id="xtick_2">
     <g id="line2d_2">
      <g>
       <use style="stroke:#000000;stroke-width:0.8;" x="140.168946" xlink:href="#me869c02cbc" y="168.1"/>
      </g>
     </g>
     <g id="text_2">
      <!-- 0.5 -->
      <g transform="translate(132.502071 183.426875)scale(0.12 -0.12)">
       <defs>
        <path d="M 4.984375 16.109375 
Q 4.984375 19.09375 6.59375 20.234375 
Q 8.203125 21.390625 9.90625 21.390625 
Q 12.203125 21.390625 13.546875 19.9375 
Q 14.890625 18.5 14.890625 16.5 
Q 14.890625 14.5 13.546875 13.0625 
Q 12.203125 11.625 9.90625 11.625 
Q 8.796875 11.625 8.203125 11.8125 
Q 9.515625 7.234375 13.546875 3.90625 
Q 17.578125 0.59375 22.90625 0.59375 
Q 29.59375 0.59375 33.59375 7.078125 
Q 35.984375 11.28125 35.984375 20.796875 
Q 35.984375 29.203125 34.1875 33.40625 
Q 31.390625 39.796875 25.6875 39.796875 
Q 17.578125 39.796875 12.796875 32.8125 
Q 12.203125 31.9375 11.53125 31.890625 
Q 10.546875 31.890625 10.328125 32.453125 
Q 10.109375 33.015625 10.109375 34.515625 
L 10.109375 64.109375 
Q 10.109375 66.5 11.078125 66.5 
Q 11.46875 66.5 12.3125 66.21875 
Q 18.609375 63.421875 25.59375 63.375 
Q 32.765625 63.375 39.203125 66.3125 
Q 39.703125 66.609375 39.984375 66.609375 
Q 40.96875 66.609375 41.015625 65.484375 
Q 41.015625 65.09375 40.203125 63.9375 
Q 39.40625 62.796875 37.6875 61.296875 
Q 35.984375 59.8125 33.78125 58.390625 
Q 31.59375 56.984375 28.390625 56.03125 
Q 25.203125 55.078125 21.6875 55.078125 
Q 17.484375 55.078125 13.1875 56.390625 
L 13.1875 36.921875 
Q 18.359375 42 25.875 42 
Q 33.890625 42 39.40625 35.546875 
Q 44.921875 29.109375 44.921875 20.125 
Q 44.921875 10.6875 38.40625 4.234375 
Q 31.890625 -2.203125 23.09375 -2.203125 
Q 15.09375 -2.203125 10.03125 3.515625 
Q 4.984375 9.234375 4.984375 16.109375 
z
" id="CMUSerif-Roman-53"/>
       </defs>
       <use xlink:href="#CMUSerif-Roman-48"/>
       <use x="50" xlink:href="#CMUSerif-Roman-46"/>
       <use x="77.783203" xlink:href="#CMUSerif-Roman-53"/>
      </g>
     </g>
    </g>
    <g id="xtick_3">
     <g id="line2d_3">
      <g>
       <use style="stroke:#000000;stroke-width:0.8;" x="205.819649" xlink:href="#me869c02cbc" y="168.1"/>
      </g>
     </g>
     <g id="text_3">
      <!-- 1.0 -->
      <g transform="translate(198.152774 183.426875)scale(0.12 -0.12)">
       <defs>
        <path d="M 8.890625 57.078125 
L 8.890625 60.203125 
Q 20.90625 60.203125 27.09375 66.609375 
Q 28.8125 66.609375 29.09375 66.21875 
Q 29.390625 65.828125 29.390625 64.015625 
L 29.390625 7.90625 
Q 29.390625 4.9375 30.859375 4 
Q 32.328125 3.078125 38.71875 3.078125 
L 41.890625 3.078125 
L 41.890625 0 
Q 38.375 0.296875 25.671875 0.296875 
Q 12.984375 0.296875 9.515625 0 
L 9.515625 3.078125 
L 12.703125 3.078125 
Q 19 3.078125 20.5 3.984375 
Q 22.015625 4.890625 22.015625 7.90625 
L 22.015625 59.71875 
Q 16.796875 57.078125 8.890625 57.078125 
z
" id="CMUSerif-Roman-49"/>
       </defs>
       <use xlink:href="#CMUSerif-Roman-49"/>
       <use x="50" xlink:href="#CMUSerif-Roman-46"/>
       <use x="77.783203" xlink:href="#CMUSerif-Roman-48"/>
      </g>
     </g>
    </g>
    <g id="xtick_4">
     <g id="line2d_4">
      <g>
       <use style="stroke:#000000;stroke-width:0.8;" x="271.470351" xlink:href="#me869c02cbc" y="168.1"/>
      </g>
     </g>
     <g id="text_4">
      <!-- 1.5 -->
      <g transform="translate(263.803476 183.426875)scale(0.12 -0.12)">
       <use xlink:href="#CMUSerif-Roman-49"/>
       <use x="50" xlink:href="#CMUSerif-Roman-46"/>
       <use x="77.783203" xlink:href="#CMUSerif-Roman-53"/>
      </g>
     </g>
    </g>
    <g id="xtick_5">
     <g id="line2d_5">
      <g>
       <use style="stroke:#000000;stroke-width:0.8;" x="337.121054" xlink:href="#me869c02cbc" y="168.1"/>
      </g>
     </g>
     <g id="text_5">
      <!-- 2.0 -->
      <g transform="translate(329.454179 183.426875)scale(0.12 -0.12)">
       <defs>
        <path d="M 4.984375 0 
Q 4.984375 1.8125 5.15625 2.34375 
Q 5.328125 2.875 6.109375 3.71875 
L 25.296875 25.09375 
Q 35.796875 36.921875 35.796875 47.21875 
Q 35.796875 53.90625 32.296875 58.6875 
Q 28.8125 63.484375 22.40625 63.484375 
Q 18.015625 63.484375 14.296875 60.796875 
Q 10.59375 58.109375 8.890625 53.328125 
Q 9.1875 53.421875 10.203125 53.421875 
Q 12.703125 53.421875 14.09375 51.859375 
Q 15.484375 50.296875 15.484375 48.1875 
Q 15.484375 45.515625 13.75 44.21875 
Q 12.015625 42.921875 10.296875 42.921875 
Q 9.625 42.921875 8.71875 43.0625 
Q 7.8125 43.21875 6.390625 44.609375 
Q 4.984375 46 4.984375 48.484375 
Q 4.984375 55.46875 10.28125 61.03125 
Q 15.578125 66.609375 23.6875 66.609375 
Q 32.859375 66.609375 38.890625 61.15625 
Q 44.921875 55.71875 44.921875 47.21875 
Q 44.921875 44.234375 44.015625 41.515625 
Q 43.109375 38.8125 41.90625 36.71875 
Q 40.71875 34.625 37.5 31.25 
Q 34.28125 27.875 31.6875 25.484375 
Q 29.109375 23.09375 23.296875 18.015625 
L 12.703125 7.71875 
L 30.71875 7.71875 
Q 39.5 7.71875 40.1875 8.5 
Q 41.15625 9.90625 42.390625 17.390625 
L 44.921875 17.390625 
L 42.09375 0 
z
" id="CMUSerif-Roman-50"/>
       </defs>
       <use xlink:href="#CMUSerif-Roman-50"/>
       <use x="50" xlink:href="#CMUSerif-Roman-46"/>
       <use x="77.783203" xlink:href="#CMUSerif-Roman-48"/>
      </g>
     </g>
    </g>
    <g id="xtick_6">
     <g id="line2d_6">
      <g>
       <use style="stroke:#000000;stroke-width:0.8;" x="402.771756" xlink:href="#me869c02cbc" y="168.1"/>
      </g>
     </g>
     <g id="text_6">
      <!-- 2.5 -->
      <g transform="translate(395.104881 183.426875)scale(0.12 -0.12)">
       <use xlink:href="#CMUSerif-Roman-50"/>
       <use x="50" xlink:href="#CMUSerif-Roman-46"/>
       <use x="77.783203" xlink:href="#CMUSerif-Roman-53"/>
      </g>
     </g>
    </g>
    <g id="text_7">
     <!-- Time (s) -->
     <g transform="translate(215.986562 198.75375)scale(0.12 -0.12)">
      <defs>
       <path d="M 3.609375 45.21875 
L 5.515625 67.671875 
L 66.609375 67.671875 
L 68.5 45.21875 
L 66.015625 45.21875 
Q 65.625 49.703125 65.25 52.296875 
Q 64.890625 54.890625 64.03125 57.34375 
Q 63.1875 59.8125 62.125 61 
Q 61.078125 62.203125 59.078125 63.15625 
Q 57.078125 64.109375 54.484375 64.34375 
Q 51.90625 64.59375 48 64.59375 
Q 43.40625 64.59375 42.28125 64.40625 
Q 41.0625 64.109375 40.765625 63.25 
Q 40.484375 62.40625 40.484375 60.59375 
L 40.484375 7.90625 
Q 40.484375 5.90625 40.890625 5.09375 
Q 41.3125 4.296875 43.609375 3.6875 
Q 45.90625 3.078125 50.984375 3.078125 
L 54.984375 3.078125 
L 54.984375 0 
Q 50.875 0.296875 35.984375 0.296875 
Q 21.1875 0.296875 17.09375 0 
L 17.09375 3.078125 
L 21.09375 3.078125 
Q 26.171875 3.078125 28.484375 3.6875 
Q 30.8125 4.296875 31.203125 5.09375 
Q 31.59375 5.90625 31.59375 7.90625 
L 31.59375 60.59375 
Q 31.59375 62.015625 31.484375 62.59375 
Q 31.390625 63.1875 30.953125 63.6875 
Q 30.515625 64.203125 29.515625 64.390625 
Q 28.515625 64.59375 24.125 64.59375 
Q 20.21875 64.59375 17.59375 64.34375 
Q 14.984375 64.109375 12.984375 63.15625 
Q 10.984375 62.203125 9.9375 61 
Q 8.890625 59.8125 8.03125 57.34375 
Q 7.171875 54.890625 6.828125 52.296875 
Q 6.5 49.703125 6.109375 45.21875 
z
" id="CMUSerif-Roman-84"/>
       <path d="M 3.328125 0 
L 3.328125 3.078125 
Q 8.640625 3.078125 9.859375 3.734375 
Q 11.078125 4.390625 11.078125 7.625 
L 11.078125 34.515625 
Q 11.078125 38.234375 9.828125 39.109375 
Q 8.59375 39.984375 3.71875 39.984375 
L 3.71875 43.109375 
L 17.671875 44.1875 
L 17.671875 7.515625 
Q 17.671875 4.546875 18.75 3.8125 
Q 19.828125 3.078125 24.703125 3.078125 
L 24.703125 0 
Q 14.5 0.296875 14.3125 0.296875 
Q 12.9375 0.296875 3.328125 0 
z
M 7.515625 61.625 
Q 7.515625 63.625 9.046875 65.25 
Q 10.59375 66.890625 12.78125 66.890625 
Q 14.984375 66.890625 16.546875 65.40625 
Q 18.109375 63.921875 18.109375 61.59375 
Q 18.109375 59.28125 16.546875 57.78125 
Q 14.984375 56.296875 12.796875 56.296875 
Q 10.5 56.296875 9 57.90625 
Q 7.515625 59.515625 7.515625 61.625 
z
" id="CMUSerif-Roman-105"/>
       <path d="M 3.21875 0 
L 3.21875 3.078125 
Q 8.546875 3.078125 9.765625 3.734375 
Q 10.984375 4.390625 10.984375 7.625 
L 10.984375 34.421875 
Q 10.984375 38.140625 9.6875 39.0625 
Q 8.40625 39.984375 3.21875 39.984375 
L 3.21875 43.109375 
L 17.28125 44.1875 
L 17.28125 33.6875 
Q 21.96875 44.1875 32.078125 44.1875 
Q 43.796875 44.1875 45.40625 34.421875 
Q 47.125 38.234375 50.703125 41.203125 
Q 54.296875 44.1875 59.90625 44.1875 
Q 67.4375 44.1875 70.40625 40.484375 
Q 72.609375 37.984375 73.046875 35.203125 
Q 73.484375 32.421875 73.484375 25.203125 
L 73.484375 6.109375 
Q 73.578125 4 75.1875 3.53125 
Q 76.8125 3.078125 81.296875 3.078125 
L 81.296875 0 
Q 71.09375 0.296875 70.125 0.296875 
Q 69.34375 0.296875 58.796875 0 
L 58.796875 3.078125 
Q 64.109375 3.078125 65.359375 3.734375 
Q 66.609375 4.390625 66.609375 7.625 
L 66.609375 30.90625 
Q 66.609375 35.984375 65.046875 38.984375 
Q 63.484375 42 59.1875 42 
Q 54 42 49.84375 37.640625 
Q 45.703125 33.296875 45.703125 25.984375 
L 45.703125 7.625 
Q 45.703125 4.390625 46.9375 3.734375 
Q 48.1875 3.078125 53.515625 3.078125 
L 53.515625 0 
Q 43.3125 0.296875 42.28125 0.296875 
Q 41.5 0.296875 31 0 
L 31 3.078125 
Q 36.328125 3.078125 37.5625 3.734375 
Q 38.8125 4.390625 38.8125 7.625 
L 38.8125 30.90625 
Q 38.8125 35.984375 37.25 38.984375 
Q 35.6875 42 31.390625 42 
Q 26.21875 42 22.0625 37.640625 
Q 17.921875 33.296875 17.921875 25.984375 
L 17.921875 7.625 
Q 17.921875 4.390625 19.15625 3.734375 
Q 20.40625 3.078125 25.6875 3.078125 
L 25.6875 0 
Q 15.484375 0.296875 14.5 0.296875 
Q 13.71875 0.296875 3.21875 0 
z
" id="CMUSerif-Roman-109"/>
       <path d="M 2.78125 22.015625 
Q 2.78125 31.453125 8.828125 38.140625 
Q 14.890625 44.828125 23.578125 44.828125 
Q 32.375 44.828125 36.9375 39.109375 
Q 41.5 33.40625 41.5 25.203125 
Q 41.5 23.6875 41.109375 23.390625 
Q 40.71875 23.09375 39.015625 23.09375 
L 11.078125 23.09375 
Q 11.078125 12.890625 14.109375 8.109375 
Q 18.3125 1.421875 25.390625 1.421875 
Q 26.375 1.421875 27.546875 1.609375 
Q 28.71875 1.8125 31.109375 2.65625 
Q 33.5 3.515625 35.59375 5.8125 
Q 37.703125 8.109375 38.921875 11.71875 
Q 39.203125 13.140625 40.1875 13.09375 
Q 41.5 13.09375 41.5 11.921875 
Q 41.5 11.03125 40.546875 9.046875 
Q 39.59375 7.078125 37.78125 4.734375 
Q 35.984375 2.390625 32.484375 0.625 
Q 29 -1.125 24.8125 -1.125 
Q 16.015625 -1.125 9.390625 5.53125 
Q 2.78125 12.203125 2.78125 22.015625 
z
M 11.1875 25.203125 
L 34.90625 25.203125 
Q 34.90625 27.296875 34.546875 29.640625 
Q 34.1875 31.984375 33.125 35.234375 
Q 32.078125 38.484375 29.640625 40.53125 
Q 27.203125 42.578125 23.578125 42.578125 
Q 21.96875 42.578125 20.234375 41.890625 
Q 18.5 41.21875 16.40625 39.546875 
Q 14.3125 37.890625 12.84375 34.125 
Q 11.375 30.375 11.1875 25.203125 
z
" id="CMUSerif-Roman-101"/>
       <path id="CMUSerif-Roman-32"/>
       <path d="M 9.90625 25 
Q 9.90625 41.890625 16.21875 55.515625 
Q 18.890625 61.234375 22.65625 66.015625 
Q 26.421875 70.796875 28.90625 72.890625 
Q 31.390625 75 32.078125 75 
Q 33.0625 75 33.109375 74.03125 
Q 33.109375 73.53125 31.78125 72.3125 
Q 15.671875 55.90625 15.71875 25 
Q 15.71875 -6 31.390625 -21.78125 
Q 33.109375 -23.484375 33.109375 -24.03125 
Q 33.109375 -25 32.078125 -25 
Q 31.390625 -25 29 -23 
Q 26.609375 -21 22.890625 -16.40625 
Q 19.1875 -11.8125 16.5 -6.203125 
Q 9.90625 7.421875 9.90625 25 
z
" id="CMUSerif-Roman-40"/>
       <path d="M 3.328125 1.3125 
L 3.328125 14.5 
Q 3.328125 15.625 3.375 16.015625 
Q 3.421875 16.40625 3.703125 16.703125 
Q 4 17 4.59375 17 
Q 5.28125 17 5.546875 16.703125 
Q 5.8125 16.40625 6 15.28125 
Q 7.515625 8.40625 10.765625 4.765625 
Q 14.015625 1.125 19.921875 1.125 
Q 25.53125 1.125 28.359375 3.609375 
Q 31.203125 6.109375 31.203125 10.203125 
Q 31.203125 17.53125 20.796875 19.390625 
Q 14.796875 20.609375 12.296875 21.40625 
Q 9.8125 22.21875 7.625 24.03125 
Q 3.328125 27.546875 3.328125 32.515625 
Q 3.328125 37.5 7.109375 41.15625 
Q 10.890625 44.828125 19.28125 44.828125 
Q 24.90625 44.828125 28.71875 42 
Q 29.828125 42.875 30.421875 43.609375 
Q 31.734375 44.828125 32.421875 44.828125 
Q 33.203125 44.828125 33.34375 44.3125 
Q 33.5 43.796875 33.5 42.390625 
L 33.5 32.328125 
Q 33.5 31.203125 33.453125 30.8125 
Q 33.40625 30.421875 33.109375 30.15625 
Q 32.8125 29.890625 32.171875 29.890625 
Q 31.0625 29.890625 31 30.8125 
Q 30.21875 42.921875 19.28125 42.921875 
Q 13.375 42.921875 10.734375 40.640625 
Q 8.109375 38.375 8.109375 35.296875 
Q 8.109375 33.59375 8.90625 32.296875 
Q 9.71875 31 10.765625 30.25 
Q 11.8125 29.5 13.765625 28.78125 
Q 15.71875 28.078125 16.90625 27.828125 
Q 18.109375 27.59375 20.40625 27.09375 
Q 28.421875 25.59375 31.78125 22.3125 
Q 35.984375 18.109375 35.984375 12.796875 
Q 35.984375 6.890625 31.984375 2.875 
Q 27.984375 -1.125 19.921875 -1.125 
Q 13.421875 -1.125 8.890625 3.21875 
Q 8.296875 2.640625 7.859375 2.125 
Q 7.421875 1.609375 7.25 1.40625 
Q 7.078125 1.21875 7.03125 1.09375 
Q 6.984375 0.984375 6.890625 0.875 
Q 4.890625 -1.125 4.390625 -1.125 
Q 3.609375 -1.125 3.46875 -0.609375 
Q 3.328125 -0.09375 3.328125 1.3125 
z
" id="CMUSerif-Roman-115"/>
       <path d="M 5.71875 -24.03125 
Q 5.71875 -23.53125 6.984375 -22.3125 
Q 23.09375 -5.90625 23.09375 25 
Q 23.09375 56 7.625 71.6875 
Q 5.71875 73.484375 5.71875 74.03125 
Q 5.71875 75 6.6875 75 
Q 7.375 75 9.78125 73 
Q 12.203125 71 15.890625 66.40625 
Q 19.578125 61.8125 22.3125 56.203125 
Q 28.90625 42.578125 28.90625 25 
Q 28.90625 8.109375 22.609375 -5.515625 
Q 19.921875 -11.234375 16.15625 -16.015625 
Q 12.40625 -20.796875 9.90625 -22.890625 
Q 7.421875 -25 6.6875 -25 
Q 5.71875 -25 5.71875 -24.03125 
z
" id="CMUSerif-Roman-41"/>
      </defs>
      <use xlink:href="#CMUSerif-Roman-84"/>
      <use x="72.167969" xlink:href="#CMUSerif-Roman-105"/>
      <use x="99.853516" xlink:href="#CMUSerif-Roman-109"/>
      <use x="183.105469" xlink:href="#CMUSerif-Roman-101"/>
      <use x="227.490234" xlink:href="#CMUSerif-Roman-32"/>
      <use x="260.742188" xlink:href="#CMUSerif-Roman-40"/>
      <use x="299.511719" xlink:href="#CMUSerif-Roman-115"/>
      <use x="338.867188" xlink:href="#CMUSerif-Roman-41"/>
     </g>
    </g>
   </g>
   <g id="matplotlib.axis_2">
    <g id="ytick_1">
     <g id="line2d_7">
      <defs>
       <path d="M 0 0 
L -3.5 0 
" id="m99a7d5ab79" style="stroke:#000000;stroke-width:0.8;"/>
      </defs>
      <g>
       <use style="stroke:#000000;stroke-width:0.8;" x="58.25" xlink:href="#m99a7d5ab79" y="161.132198"/>
      </g>
     </g>
     <g id="text_8">
      <!-- 0.00 -->
      <g transform="translate(29.91625 165.295635)scale(0.12 -0.12)">
       <use xlink:href="#CMUSerif-Roman-48"/>
       <use x="50" xlink:href="#CMUSerif-Roman-46"/>
       <use x="77.783203" xlink:href="#CMUSerif-Roman-48"/>
       <use x="127.783203" xlink:href="#CMUSerif-Roman-48"/>
      </g>
     </g>
    </g>
    <g id="ytick_2">
     <g id="line2d_8">
      <g>
       <use style="stroke:#000000;stroke-width:0.8;" x="58.25" xlink:href="#m99a7d5ab79" y="132.339626"/>
      </g>
     </g>
     <g id="text_9">
      <!-- 0.25 -->
      <g transform="translate(29.91625 136.503063)scale(0.12 -0.12)">
       <use xlink:href="#CMUSerif-Roman-48"/>
       <use x="50" xlink:href="#CMUSerif-Roman-46"/>
       <use x="77.783203" xlink:href="#CMUSerif-Roman-50"/>
       <use x="127.783203" xlink:href="#CMUSerif-Roman-53"/>
      </g>
     </g>
    </g>
    <g id="ytick_3">
     <g id="line2d_9">
      <g>
       <use style="stroke:#000000;stroke-width:0.8;" x="58.25" xlink:href="#m99a7d5ab79" y="103.547054"/>
      </g>
     </g>
     <g id="text_10">
      <!-- 0.50 -->
      <g transform="translate(29.91625 107.710491)scale(0.12 -0.12)">
       <use xlink:href="#CMUSerif-Roman-48"/>
       <use x="50" xlink:href="#CMUSerif-Roman-46"/>
       <use x="77.783203" xlink:href="#CMUSerif-Roman-53"/>
       <use x="127.783203" xlink:href="#CMUSerif-Roman-48"/>
      </g>
     </g>
    </g>
    <g id="ytick_4">
     <g id="line2d_10">
      <g>
       <use style="stroke:#000000;stroke-width:0.8;" x="58.25" xlink:href="#m99a7d5ab79" y="74.754482"/>
      </g>
     </g>
     <g id="text_11">
      <!-- 0.75 -->
      <g transform="translate(29.91625 78.917919)scale(0.12 -0.12)">
       <defs>
        <path d="M 5.609375 47.015625 
L 8.890625 67.578125 
L 11.375 67.578125 
Q 11.671875 66.359375 12.1875 65.8125 
Q 12.703125 65.28125 15.546875 64.84375 
Q 18.40625 64.40625 24.21875 64.40625 
L 48.484375 64.40625 
Q 48.484375 62.109375 47.609375 60.890625 
L 34.078125 41.890625 
Q 29.78125 35.890625 27.875 24.8125 
Q 26.765625 17.390625 26.8125 8.40625 
L 26.8125 3.328125 
Q 26.8125 -2.203125 22.1875 -2.203125 
Q 17.578125 -2.203125 17.578125 3.328125 
Q 17.578125 22.40625 29.890625 40.921875 
Q 31.203125 42.828125 36.0625 49.609375 
Q 40.921875 56.390625 41.109375 56.6875 
L 20.40625 56.6875 
Q 11.328125 56.6875 10.59375 56.109375 
Q 9.625 55.21875 8.109375 47.015625 
z
" id="CMUSerif-Roman-55"/>
       </defs>
       <use xlink:href="#CMUSerif-Roman-48"/>
       <use x="50" xlink:href="#CMUSerif-Roman-46"/>
       <use x="77.783203" xlink:href="#CMUSerif-Roman-55"/>
       <use x="127.783203" xlink:href="#CMUSerif-Roman-53"/>
      </g>
     </g>
    </g>
    <g id="ytick_5">
     <g id="line2d_11">
      <g>
       <use style="stroke:#000000;stroke-width:0.8;" x="58.25" xlink:href="#m99a7d5ab79" y="45.96191"/>
      </g>
     </g>
     <g id="text_12">
      <!-- 1.00 -->
      <g transform="translate(29.91625 50.125347)scale(0.12 -0.12)">
       <use xlink:href="#CMUSerif-Roman-49"/>
       <use x="50" xlink:href="#CMUSerif-Roman-46"/>
       <use x="77.783203" xlink:href="#CMUSerif-Roman-48"/>
       <use x="127.783203" xlink:href="#CMUSerif-Roman-48"/>
      </g>
     </g>
    </g>
    <g id="ytick_6">
     <g id="line2d_12">
      <g>
       <use style="stroke:#000000;stroke-width:0.8;" x="58.25" xlink:href="#m99a7d5ab79" y="17.169338"/>
      </g>
     </g>
     <g id="text_13">
      <!-- 1.25 -->
      <g transform="translate(29.91625 21.332776)scale(0.12 -0.12)">
       <use xlink:href="#CMUSerif-Roman-49"/>
       <use x="50" xlink:href="#CMUSerif-Roman-46"/>
       <use x="77.783203" xlink:href="#CMUSerif-Roman-50"/>
       <use x="127.783203" xlink:href="#CMUSerif-Roman-53"/>
      </g>
     </g>
    </g>
    <g id="text_14">
     <!-- Error (s) -->
     <g transform="translate(22.91625 114.571986)rotate(-90)scale(0.12 -0.12)">
      <defs>
       <path d="M 3.328125 0 
L 3.328125 3.078125 
L 5.71875 3.078125 
Q 11.140625 3.078125 12.375 3.984375 
Q 13.625 4.890625 13.625 7.8125 
L 13.625 60.203125 
Q 13.625 63.09375 12.34375 63.984375 
Q 11.078125 64.890625 5.71875 64.890625 
L 3.328125 64.890625 
L 3.328125 68.015625 
L 59.625 68.015625 
L 62.40625 45.515625 
L 59.90625 45.515625 
Q 59.234375 51.21875 58.328125 54.515625 
Q 57.421875 57.8125 55.25 60.34375 
Q 53.078125 62.890625 49.53125 63.890625 
Q 46 64.890625 40.28125 64.890625 
L 27.390625 64.890625 
Q 23.96875 64.890625 23.234375 64.1875 
Q 22.515625 63.484375 22.515625 60.890625 
L 22.515625 36.921875 
L 31.5 36.921875 
Q 38.375 36.921875 40.328125 39.3125 
Q 42.28125 41.703125 42.28125 48.578125 
L 44.828125 48.578125 
L 44.828125 22.125 
L 42.28125 22.125 
Q 42.28125 28.90625 40.328125 31.34375 
Q 38.375 33.796875 31.5 33.796875 
L 22.515625 33.796875 
L 22.515625 7.078125 
Q 22.515625 4.5 23.265625 3.78125 
Q 24.03125 3.078125 27.390625 3.078125 
L 40.71875 3.078125 
Q 45.015625 3.078125 48.15625 3.640625 
Q 51.3125 4.203125 53.515625 5.59375 
Q 55.71875 6.984375 57.203125 8.59375 
Q 58.6875 10.203125 59.734375 13.109375 
Q 60.796875 16.015625 61.40625 18.703125 
Q 62.015625 21.390625 62.703125 25.78125 
L 65.1875 25.78125 
L 60.984375 0 
z
" id="CMUSerif-Roman-69"/>
       <path d="M 2.78125 0 
L 2.78125 3.078125 
Q 8.109375 3.078125 9.34375 3.734375 
Q 10.59375 4.390625 10.59375 7.625 
L 10.59375 34.421875 
Q 10.59375 38.140625 9.296875 39.0625 
Q 8.015625 39.984375 2.78125 39.984375 
L 2.78125 43.109375 
L 16.703125 44.1875 
L 16.703125 33.203125 
Q 18.109375 37.5 21.109375 40.84375 
Q 24.125 44.1875 29 44.1875 
Q 32.234375 44.1875 34.296875 42.375 
Q 36.375 40.578125 36.375 38.09375 
Q 36.375 35.890625 35.03125 34.78125 
Q 33.6875 33.6875 32.078125 33.6875 
Q 30.28125 33.6875 29.03125 34.828125 
Q 27.78125 35.984375 27.78125 37.984375 
Q 27.78125 39.203125 28.34375 40.15625 
Q 28.90625 41.109375 29.34375 41.453125 
Q 29.78125 41.796875 30.078125 41.890625 
Q 29.890625 42 29 42 
Q 23.484375 42 20.328125 36.5 
Q 17.1875 31 17.1875 23.1875 
L 17.1875 7.8125 
Q 17.1875 4.9375 18.375 4 
Q 19.578125 3.078125 24.8125 3.078125 
L 26.90625 3.078125 
L 26.90625 0 
Q 22.90625 0.296875 14.203125 0.296875 
Q 12.984375 0.296875 11.078125 0.25 
Q 9.1875 0.203125 6.6875 0.09375 
Q 4.203125 0 2.78125 0 
z
" id="CMUSerif-Roman-114"/>
       <path d="M 16.015625 -1.125 
Q 2.78125 11.921875 2.78125 21.40625 
Q 2.78125 30.90625 9.25 37.859375 
Q 15.71875 44.828125 25 44.828125 
Q 34.078125 44.828125 40.59375 37.90625 
Q 47.125 31 47.125 21.390625 
Q 47.125 11.96875 40.546875 5.421875 
Q 33.984375 -1.125 24.90625 -1.125 
Q 16.015625 -1.125 2.78125 11.921875 
z
M 11.078125 22.21875 
Q 11.078125 12.5 13.625 8.109375 
Q 17.53125 1.421875 25 1.421875 
Q 28.71875 1.421875 31.8125 3.421875 
Q 34.90625 5.421875 36.625 8.796875 
Q 38.8125 13.1875 38.8125 22.21875 
Q 38.8125 31.84375 36.1875 36.078125 
Q 32.28125 42.578125 24.90625 42.578125 
Q 21.6875 42.578125 18.53125 40.890625 
Q 15.375 39.203125 13.484375 35.890625 
Q 11.078125 31.5 11.078125 22.21875 
z
" id="CMUSerif-Roman-111"/>
      </defs>
      <use xlink:href="#CMUSerif-Roman-69"/>
      <use x="67.96875" xlink:href="#CMUSerif-Roman-114"/>
      <use x="107.03125" xlink:href="#CMUSerif-Roman-114"/>
      <use x="146.09375" xlink:href="#CMUSerif-Roman-111"/>
      <use x="196.09375" xlink:href="#CMUSerif-Roman-114"/>
      <use x="235.15625" xlink:href="#CMUSerif-Roman-32"/>
      <use x="268.408203" xlink:href="#CMUSerif-Roman-40"/>
      <use x="307.177734" xlink:href="#CMUSerif-Roman-115"/>
      <use x="346.533203" xlink:href="#CMUSerif-Roman-41"/>
     </g>
    </g>
   </g>
   <g id="line2d_13">
    <path clip-path="url(#p26a39f4336)" d="M 74.649545 161.132198 
L 74.780847 161.132198 
L 75.04345 160.901857 
L 75.174751 161.132198 
L 75.306052 160.901857 
L 75.437354 160.901857 
L 75.568655 160.671516 
L 75.699957 160.671516 
L 75.831258 161.132198 
L 75.96256 160.556346 
L 76.093861 160.671516 
L 76.356464 160.441176 
L 76.487765 160.556346 
L 76.619067 160.210835 
L 76.750368 160.210835 
L 76.881669 160.441176 
L 77.144272 159.980495 
L 77.275574 160.095665 
L 77.538176 160.556346 
L 77.669478 159.750154 
L 77.800779 159.980495 
L 77.932081 159.980495 
L 78.063382 160.556346 
L 78.325985 159.519814 
L 78.457286 159.980495 
L 78.588588 159.980495 
L 78.719889 159.750154 
L 78.85119 159.865324 
L 78.982492 160.210835 
L 79.113793 159.404643 
L 79.245095 159.750154 
L 79.376396 159.059132 
L 79.507697 159.059132 
L 79.638999 160.556346 
L 79.7703 158.828792 
L 79.901602 159.059132 
L 80.164204 158.713622 
L 80.295506 158.598451 
L 80.426807 158.828792 
L 80.558109 158.598451 
L 80.68941 158.598451 
L 80.820711 159.750154 
L 80.952013 158.483281 
L 81.214616 158.943962 
L 81.345917 159.059132 
L 81.477219 159.980495 
L 81.60852 158.368111 
L 81.871123 159.750154 
L 82.002424 158.0226 
L 82.133726 159.059132 
L 82.265027 158.0226 
L 82.396328 158.828792 
L 82.52763 157.677089 
L 82.790233 158.598451 
L 82.921534 157.677089 
L 83.052835 157.677089 
L 83.315438 158.828792 
L 83.44674 160.210835 
L 83.709342 157.677089 
L 83.840644 158.0226 
L 83.971945 157.446748 
L 84.103247 160.095665 
L 84.234548 157.446748 
L 84.365849 157.677089 
L 84.497151 157.677089 
L 84.759754 156.986067 
L 84.891055 157.331578 
L 85.022356 156.525386 
L 85.284959 159.059132 
L 85.416261 156.986067 
L 85.547562 158.828792 
L 85.941466 156.179875 
L 86.204069 156.640556 
L 86.33537 156.525386 
L 86.466672 156.064705 
L 86.597973 156.064705 
L 86.991878 157.677089 
L 87.123179 159.750154 
L 87.25448 156.179875 
L 87.385782 158.13777 
L 87.648385 155.373683 
L 87.779686 158.828792 
L 87.910987 156.295046 
L 88.042289 157.792259 
L 88.17359 155.604024 
L 88.304892 156.525386 
L 88.436193 159.980495 
L 88.567494 155.488853 
L 88.698796 157.446748 
L 88.830097 154.913002 
L 88.961399 155.373683 
L 89.0927 154.797832 
L 89.224001 159.750154 
L 89.355303 155.143343 
L 89.486604 157.677089 
L 89.617906 155.949535 
L 89.880508 156.295046 
L 90.01181 154.913002 
L 90.143111 158.13777 
L 90.274413 154.22198 
L 90.405714 158.0226 
L 90.537015 155.373683 
L 90.668317 156.640556 
L 90.799618 155.143343 
L 90.93092 155.373683 
L 91.062221 158.598451 
L 91.324824 155.143343 
L 91.456125 156.755727 
L 91.587427 154.22198 
L 91.718728 156.410216 
L 91.981331 153.646129 
L 92.112632 154.913002 
L 92.243934 157.677089 
L 92.375235 153.530959 
L 92.637838 156.064705 
L 92.769139 153.530959 
L 92.900441 156.525386 
L 93.031742 153.185448 
L 93.425646 156.525386 
L 93.556948 156.525386 
L 93.688249 153.070277 
L 93.950852 157.446748 
L 94.082153 153.876469 
L 94.213455 155.373683 
L 94.607359 153.070277 
L 94.73866 155.604024 
L 94.869962 154.797832 
L 95.001263 156.986067 
L 95.132565 152.724767 
L 95.263866 153.070277 
L 95.526469 156.525386 
L 95.65777 152.955107 
L 95.789072 154.682661 
L 95.920373 154.797832 
L 96.051674 151.918575 
L 96.182976 154.22198 
L 96.314277 152.609596 
L 96.445579 154.682661 
L 96.57688 153.761299 
L 96.708181 156.986067 
L 96.970784 151.457893 
L 97.233387 156.410216 
L 97.364688 156.064705 
L 97.49599 151.342723 
L 97.758593 155.258513 
L 98.021196 151.457893 
L 98.152497 153.070277 
L 98.283798 152.264085 
L 98.4151 155.604024 
L 98.546401 150.651701 
L 98.677703 155.604024 
L 98.809004 154.797832 
L 98.940305 150.997212 
L 99.071607 150.421361 
L 99.465511 157.677089 
L 99.728114 150.306191 
L 99.990717 154.913002 
L 100.253319 150.07585 
L 100.384621 151.918575 
L 100.515922 150.997212 
L 100.647224 151.918575 
L 100.778525 155.373683 
L 100.909826 151.918575 
L 101.041128 151.688234 
L 101.172429 156.179875 
L 101.435032 149.615169 
L 101.566333 149.615169 
L 101.697635 150.306191 
L 101.960238 155.488853 
L 102.091539 156.525386 
L 102.354142 149.845509 
L 102.485443 151.227553 
L 102.616745 154.452321 
L 102.748046 153.646129 
L 103.14195 148.924147 
L 103.273252 151.688234 
L 103.404553 148.463466 
L 103.667156 154.682661 
L 103.798457 153.300618 
L 103.929759 149.154488 
L 104.192362 155.143343 
L 104.454964 148.924147 
L 104.586266 149.384828 
L 104.717567 148.463466 
L 104.848869 148.924147 
L 105.111471 154.337151 
L 105.242773 156.295046 
L 105.505376 151.227553 
L 105.636677 148.233125 
L 105.767978 148.924147 
L 106.030581 154.22198 
L 106.555787 147.772444 
L 106.687088 147.311763 
L 106.81839 149.615169 
L 106.949691 147.081422 
L 107.343595 155.373683 
L 107.737499 147.657274 
L 108.000102 153.070277 
L 108.262705 147.542104 
L 108.394006 147.772444 
L 108.525308 146.851082 
L 108.656609 147.311763 
L 108.787911 146.16006 
L 109.181815 154.22198 
L 109.313116 155.949535 
L 109.838322 145.92972 
L 109.969623 146.16006 
L 110.232226 152.839937 
L 110.363528 152.494426 
L 110.888733 145.584209 
L 111.020035 146.390401 
L 111.151336 146.04489 
L 111.282637 147.311763 
L 111.413939 145.92972 
L 111.54524 146.390401 
L 112.070446 155.604024 
L 112.46435 145.92972 
L 112.595651 146.16006 
L 112.858254 151.688234 
L 113.252158 144.432506 
L 113.38346 146.16006 
L 113.646063 144.317336 
L 113.777364 145.814549 
L 113.908665 145.008357 
L 114.039967 145.699379 
L 114.433871 153.300618 
L 114.565173 154.797832 
L 114.959077 148.463466 
L 115.22168 143.856654 
L 115.352981 144.893187 
L 115.484282 143.626314 
L 115.746885 148.463466 
L 115.878187 151.342723 
L 116.009488 150.997212 
L 116.797296 143.165633 
L 117.059899 145.008357 
L 117.191201 142.704952 
L 117.322502 144.547676 
L 117.453803 142.359441 
L 118.372913 154.682661 
L 119.02942 142.359441 
L 119.423324 148.924147 
L 119.94853 141.783589 
L 120.079832 143.741484 
L 120.211133 143.165633 
L 120.473736 141.553249 
L 120.736339 144.086995 
L 120.998941 141.322908 
L 121.655448 152.955107 
L 121.78675 153.070277 
L 122.70586 140.631886 
L 122.968462 142.935292 
L 123.099764 140.401546 
L 123.231065 141.668419 
L 123.624969 148.924147 
L 123.756271 149.039317 
L 124.806682 139.249843 
L 125.200586 142.704952 
L 125.331888 141.89876 
L 125.463189 139.480184 
L 125.594491 140.401546 
L 125.725792 139.249843 
L 125.857093 139.825694 
L 127.038806 155.373683 
L 127.170107 154.22198 
L 128.089217 138.09814 
L 128.35182 141.553249 
L 128.614423 145.92972 
L 129.27093 137.522289 
L 129.402231 138.328481 
L 129.664834 140.401546 
L 130.058738 136.946437 
L 130.321341 138.673991 
L 130.715245 141.322908 
L 130.977848 136.946437 
L 131.10915 137.867799 
L 132.028259 151.688234 
L 133.341273 135.564394 
L 133.603876 138.09814 
L 133.866479 140.862227 
L 134.260383 135.218883 
L 135.048192 146.27523 
L 136.623809 133.95201 
L 137.411617 139.480184 
L 138.068124 133.260988 
L 140.168946 155.373683 
L 140.300248 154.682661 
L 141.875865 132.569966 
L 142.007166 132.339626 
L 142.663673 140.631886 
L 143.582783 130.957582 
L 144.107989 135.794734 
L 144.895797 130.26656 
L 145.946208 136.716097 
L 146.07751 136.370586 
L 146.602715 129.575539 
L 148.047031 147.311763 
L 148.178332 147.196593 
L 150.147853 128.193495 
L 150.410456 130.03622 
L 151.198264 136.255415 
L 151.986073 127.732814 
L 153.167786 141.207738 
L 155.662512 125.89009 
L 155.793814 125.89009 
L 157.106828 132.800307 
L 157.238129 132.339626 
L 158.157239 124.623216 
L 162.096281 155.719194 
L 162.490185 151.918575 
L 165.378816 121.513619 
L 165.641419 123.586684 
L 166.429227 131.187923 
L 166.560529 131.303093 
L 168.004844 120.361916 
L 168.923954 126.811452 
L 169.055255 126.581111 
L 170.499571 119.095043 
L 172.862996 128.999687 
L 174.044709 117.597829 
L 174.569914 121.9743 
L 176.670737 140.401546 
L 176.802038 140.171205 
L 180.478478 114.948912 
L 182.710602 128.654176 
L 183.235807 124.277706 
L 184.548821 112.991017 
L 186.912247 131.187923 
L 191.770399 109.88142 
L 191.9017 109.99659 
L 194.659029 119.670894 
L 194.790331 119.440553 
L 196.759852 107.693184 
L 197.153756 109.766249 
L 197.416359 107.693184 
L 197.54766 107.693184 
L 200.30499 126.350771 
L 205.95095 155.604024 
L 213.829035 100.322286 
L 213.960336 100.552626 
L 216.061158 112.991017 
L 218.949789 97.788539 
L 221.444516 108.614546 
L 225.383558 95.139623 
L 231.817327 112.069655 
L 235.362465 90.878322 
L 241.796234 124.277706 
L 250.987332 83.968105 
L 251.118633 83.968105 
L 258.471512 109.766249 
L 264.511377 77.97925 
L 264.642678 78.20959 
L 271.207748 106.541481 
L 285.650903 68.535286 
L 294.842001 84.659127 
L 294.973303 84.428786 
L 301.538373 61.740239 
L 304.427004 69.341478 
L 304.689607 68.420116 
L 306.790429 59.321663 
L 325.697831 125.314238 
L 337.252355 155.719194 
L 337.383656 155.604024 
L 373.097638 30.298751 
L 373.22894 30.413921 
L 381.107024 51.144573 
L 392.267644 21.77615 
L 402.640455 39.973055 
L 402.640455 39.973055 
" style="fill:none;stroke:#1f77b4;stroke-linecap:square;stroke-width:1.5;"/>
   </g>
   <g id="patch_3">
    <path d="M 58.25 168.1 
L 58.25 14.808347 
" style="fill:none;stroke:#000000;stroke-linecap:square;stroke-linejoin:miter;stroke-width:0.8;"/>
   </g>
   <g id="patch_4">
    <path d="M 419.04 168.1 
L 419.04 14.808347 
" style="fill:none;stroke:#000000;stroke-linecap:square;stroke-linejoin:miter;stroke-width:0.8;"/>
   </g>
   <g id="patch_5">
    <path d="M 58.25 168.1 
L 419.04 168.1 
" style="fill:none;stroke:#000000;stroke-linecap:square;stroke-linejoin:miter;stroke-width:0.8;"/>
   </g>
   <g id="patch_6">
    <path d="M 58.25 14.808347 
L 419.04 14.808347 
" style="fill:none;stroke:#000000;stroke-linecap:square;stroke-linejoin:miter;stroke-width:0.8;"/>
   </g>
   <g id="legend_1">
    <g id="patch_7">
     <path d="M 66.65 41.132943 
L 114.706871 41.132943 
Q 117.106871 41.132943 117.106871 38.732943 
L 117.106871 23.208347 
Q 117.106871 20.808347 114.706871 20.808347 
L 66.65 20.808347 
Q 64.25 20.808347 64.25 23.208347 
L 64.25 38.732943 
Q 64.25 41.132943 66.65 41.132943 
z
" style="fill:#ffffff;opacity:0.8;stroke:#cccccc;stroke-linejoin:miter;"/>
    </g>
    <g id="line2d_14">
     <path d="M 69.05 29.808347 
L 93.05 29.808347 
" style="fill:none;stroke:#1f77b4;stroke-linecap:square;stroke-width:1.5;"/>
    </g>
    <g id="line2d_15"/>
    <g id="text_15">
     <!-- $\epsilon_{T}$ -->
     <g transform="translate(102.65 34.008347)scale(0.12 -0.12)">
      <defs>
       <path d="M 29.09375 22.921875 
C 30.59375 22.921875 32.296875 22.921875 32.296875 24.515625 
C 32.296875 25.8125 31.296875 25.8125 29.5 25.8125 
L 13.296875 25.8125 
C 15.796875 34.78125 21.703125 40.203125 30.59375 40.203125 
L 33.5 40.203125 
C 35.203125 40.203125 36.703125 40.203125 36.703125 41.796875 
C 36.703125 43.09375 35.59375 43.09375 33.796875 43.09375 
L 30.40625 43.09375 
C 18.09375 43.09375 4.59375 33.296875 4.59375 17.59375 
C 4.59375 6.5 12.09375 -1 22 -1 
C 28.40625 -1 34.703125 3.03125 34.703125 4.03125 
C 34.703125 4.625 34.40625 5.25 33.796875 5.25 
C 33.5 5.25 33.296875 5.140625 32.796875 4.75 
C 29 2.21875 25.296875 1 22.296875 1 
C 17 1 11.40625 4.53125 11.40625 14.34375 
C 11.40625 16.25 11.59375 18.875 12.5 22.921875 
z
" id="CMMI12-15"/>
       <path d="M 41.703125 61.09375 
C 42.296875 63.5 42.5 64.390625 44 64.796875 
C 44.796875 65 48.09375 65 50.203125 65 
C 60.203125 65 64.90625 64.59375 64.90625 56.78125 
C 64.90625 55.265625 64.5 51.484375 63.90625 47.765625 
L 63.796875 46.5625 
C 63.796875 46.15625 64.203125 45.5625 64.796875 45.5625 
C 65.796875 45.5625 65.796875 46.0625 66.09375 47.65625 
L 69 65.375 
C 69.203125 66.296875 69.203125 66.5 69.203125 66.796875 
C 69.203125 67.890625 68.59375 67.890625 66.59375 67.890625 
L 11.90625 67.890625 
C 9.59375 67.890625 9.5 67.796875 8.90625 66 
L 2.796875 47.96875 
C 2.703125 47.75 2.40625 46.65625 2.40625 46.5625 
C 2.40625 46.0625 2.796875 45.5625 3.40625 45.5625 
C 4.203125 45.5625 4.40625 45.953125 4.796875 47.25 
C 9 59.390625 11.09375 65 24.40625 65 
L 31.09375 65 
C 33.5 65 34.5 65 34.5 63.890625 
C 34.5 63.578125 34.5 63.390625 34 61.578125 
L 20.59375 7.796875 
C 19.59375 3.890625 19.40625 2.890625 8.796875 2.890625 
C 6.296875 2.890625 5.59375 2.890625 5.59375 1 
C 5.59375 0 6.703125 0 7.203125 0 
C 9.703125 0 12.296875 0 14.796875 0 
L 30.40625 0 
C 32.90625 0 35.59375 0 38.09375 0 
C 39.203125 0 40.203125 0 40.203125 1.890625 
C 40.203125 2.890625 39.5 2.890625 36.90625 2.890625 
C 27.90625 2.890625 27.90625 3.796875 27.90625 5.296875 
C 27.90625 5.40625 27.90625 6.109375 28.296875 7.71875 
z
" id="CMMI12-84"/>
      </defs>
      <use transform="scale(0.996264)" xlink:href="#CMMI12-15"/>
      <use transform="translate(39.388958 -14.943915)scale(0.697382)" xlink:href="#CMMI12-84"/>
     </g>
    </g>
   </g>
  </g>
 </g>
 <defs>
  <clipPath id="p26a39f4336">
   <rect height="153.291653" width="360.79" x="58.25" y="14.808347"/>
  </clipPath>
 </defs>
</svg>
